<svg width="31" height="46" viewBox="0 0 31 46" fill="none" xmlns="http://www.w3.org/2000/svg">
<path fill-rule="evenodd" clip-rule="evenodd" d="M2.85718 13L14 1.85715L25.1429 13" fill="white"/>
<path fill-rule="evenodd" clip-rule="evenodd" d="M5.33325 10.5238V20.4286C5.33325 20.7569 5.46369 21.0718 5.69588 21.304C5.92807 21.5362 6.24298 21.6667 6.57135 21.6667H10.2856C10.614 21.6667 10.9289 21.5362 11.1611 21.304C11.3933 21.0718 11.5237 20.7569 11.5237 20.4286V15.4762C11.5237 15.1478 11.6542 14.8329 11.8864 14.6007C12.1185 14.3685 12.4335 14.2381 12.7618 14.2381H15.238C15.5664 14.2381 15.8813 14.3685 16.1135 14.6007C16.3457 14.8329 16.4761 15.1478 16.4761 15.4762V20.4286C16.4761 20.7569 16.6066 21.0718 16.8387 21.304C17.0709 21.5362 17.3858 21.6667 17.7142 21.6667H21.4285C21.7569 21.6667 22.0718 21.5362 22.304 21.304C22.5361 21.0718 22.6666 20.7569 22.6666 20.4286V10.5238" fill="white"/>
<path d="M5.13636 40.1591C4.38636 40.1591 3.7178 40.0303 3.13068 39.7727C2.54735 39.5152 2.08333 39.1572 1.73864 38.6989C1.39773 38.2367 1.21212 37.7008 1.18182 37.0909H2.61364C2.64394 37.4659 2.77273 37.7898 3 38.0625C3.22727 38.3314 3.52462 38.5398 3.89205 38.6875C4.25947 38.8352 4.66667 38.9091 5.11364 38.9091C5.61364 38.9091 6.05682 38.822 6.44318 38.6477C6.82955 38.4735 7.13258 38.2311 7.35227 37.9205C7.57197 37.6098 7.68182 37.25 7.68182 36.8409C7.68182 36.4129 7.57576 36.036 7.36364 35.7102C7.15152 35.3807 6.84091 35.1231 6.43182 34.9375C6.02273 34.7519 5.52273 34.6591 4.93182 34.6591H4V33.4091H4.93182C5.39394 33.4091 5.79924 33.3258 6.14773 33.1591C6.5 32.9924 6.77462 32.7576 6.97159 32.4545C7.17235 32.1515 7.27273 31.7955 7.27273 31.3864C7.27273 30.9924 7.18561 30.6496 7.01136 30.358C6.83712 30.0663 6.59091 29.839 6.27273 29.6761C5.95833 29.5133 5.58712 29.4318 5.15909 29.4318C4.75758 29.4318 4.37879 29.5057 4.02273 29.6534C3.67045 29.7973 3.38258 30.0076 3.15909 30.2841C2.93561 30.5568 2.81439 30.8864 2.79545 31.2727H1.43182C1.45455 30.6629 1.63826 30.1288 1.98295 29.6705C2.32765 29.2083 2.77841 28.8485 3.33523 28.5909C3.89583 28.3333 4.51136 28.2045 5.18182 28.2045C5.90152 28.2045 6.51894 28.3504 7.03409 28.642C7.54924 28.9299 7.94508 29.3106 8.22159 29.7841C8.49811 30.2576 8.63636 30.7689 8.63636 31.3182C8.63636 31.9735 8.46402 32.5322 8.11932 32.9943C7.77841 33.4564 7.31439 33.7765 6.72727 33.9545V34.0455C7.46212 34.1667 8.03598 34.4792 8.44886 34.983C8.86174 35.483 9.06818 36.1023 9.06818 36.8409C9.06818 37.4735 8.89583 38.0417 8.55114 38.5455C8.21023 39.0455 7.74432 39.4394 7.15341 39.7273C6.5625 40.0152 5.89015 40.1591 5.13636 40.1591ZM15.2557 40.1591C14.7784 40.1515 14.3011 40.0606 13.8239 39.8864C13.3466 39.7121 12.911 39.4186 12.517 39.0057C12.1231 38.589 11.8068 38.0265 11.5682 37.3182C11.3295 36.6061 11.2102 35.7121 11.2102 34.6364C11.2102 33.6061 11.3068 32.6932 11.5 31.8977C11.6932 31.0985 11.9735 30.4261 12.3409 29.8807C12.7083 29.3314 13.1515 28.9148 13.6705 28.6307C14.1932 28.3466 14.7822 28.2045 15.4375 28.2045C16.089 28.2045 16.6686 28.3352 17.1761 28.5966C17.6875 28.8542 18.1042 29.214 18.4261 29.6761C18.7481 30.1383 18.9564 30.6705 19.0511 31.2727H17.6648C17.536 30.75 17.286 30.3163 16.9148 29.9716C16.5436 29.6269 16.0511 29.4545 15.4375 29.4545C14.536 29.4545 13.8258 29.8466 13.3068 30.6307C12.7917 31.4148 12.5322 32.5152 12.5284 33.9318H12.6193C12.8314 33.6098 13.0833 33.3352 13.375 33.108C13.6705 32.8769 13.9962 32.6989 14.3523 32.5739C14.7083 32.4489 15.0852 32.3864 15.483 32.3864C16.1496 32.3864 16.7595 32.553 17.3125 32.8864C17.8655 33.2159 18.3087 33.6723 18.642 34.2557C18.9754 34.8352 19.142 35.5 19.142 36.25C19.142 36.9697 18.9811 37.6288 18.6591 38.2273C18.3371 38.822 17.8845 39.2955 17.3011 39.6477C16.7216 39.9962 16.0398 40.1667 15.2557 40.1591ZM15.2557 38.9091C15.733 38.9091 16.161 38.7898 16.5398 38.5511C16.9223 38.3125 17.2235 37.9924 17.4432 37.5909C17.6667 37.1894 17.7784 36.7424 17.7784 36.25C17.7784 35.7689 17.6705 35.3314 17.4545 34.9375C17.2424 34.5398 16.9489 34.2235 16.5739 33.9886C16.2027 33.7538 15.7784 33.6364 15.3011 33.6364C14.9413 33.6364 14.6061 33.7083 14.2955 33.8523C13.9848 33.9924 13.7121 34.1856 13.4773 34.4318C13.2462 34.678 13.0644 34.9602 12.9318 35.2784C12.7992 35.5928 12.733 35.9242 12.733 36.2727C12.733 36.7348 12.8409 37.1667 13.0568 37.5682C13.2765 37.9697 13.5758 38.2936 13.9545 38.5398C14.3371 38.786 14.7708 38.9091 15.2557 38.9091ZM25.1719 40.1591C24.3158 40.1591 23.5866 39.9261 22.9844 39.4602C22.3821 38.9905 21.9219 38.3106 21.6037 37.4205C21.2855 36.5265 21.1264 35.447 21.1264 34.1818C21.1264 32.9242 21.2855 31.8504 21.6037 30.9602C21.9257 30.0663 22.3878 29.3845 22.9901 28.9148C23.5961 28.4413 24.3234 28.2045 25.1719 28.2045C26.0204 28.2045 26.7457 28.4413 27.348 28.9148C27.9541 29.3845 28.4162 30.0663 28.7344 30.9602C29.0563 31.8504 29.2173 32.9242 29.2173 34.1818C29.2173 35.447 29.0582 36.5265 28.7401 37.4205C28.4219 38.3106 27.9616 38.9905 27.3594 39.4602C26.7571 39.9261 26.0279 40.1591 25.1719 40.1591ZM25.1719 38.9091C26.0204 38.9091 26.6795 38.5 27.1491 37.6818C27.6188 36.8636 27.8537 35.697 27.8537 34.1818C27.8537 33.1742 27.7457 32.3163 27.5298 31.608C27.3177 30.8996 27.0109 30.3598 26.6094 29.9886C26.2116 29.6174 25.7325 29.4318 25.1719 29.4318C24.331 29.4318 23.6738 29.8466 23.2003 30.6761C22.7268 31.5019 22.4901 32.6705 22.4901 34.1818C22.4901 35.1894 22.5961 36.0455 22.8082 36.75C23.0204 37.4545 23.3253 37.9905 23.723 38.358C24.1245 38.7254 24.6075 38.9091 25.1719 38.9091Z" fill="white"/>
</svg>
