<svg width="21" height="21" viewBox="0 0 21 21" fill="none" xmlns="http://www.w3.org/2000/svg">
<path d="M10.5 13.5V5.5C10.5 4.96957 10.2893 4.46086 9.91421 4.08579C9.53914 3.71071 9.03043 3.5 8.5 3.5H5.5C4.96957 3.5 4.46086 3.71071 4.08579 4.08579C3.71071 4.46086 3.5 4.96957 3.5 5.5V15.5C3.5 16.0304 3.71071 16.5391 4.08579 16.9142C4.46086 17.2893 4.96957 17.5 5.5 17.5H15.5C16.0304 17.5 16.5391 17.2893 16.9142 16.9142C17.2893 16.5391 17.5 16.0304 17.5 15.5V5.5C17.5 4.96957 17.2893 4.46086 16.9142 4.08579C16.5391 3.71071 16.0304 3.5 15.5 3.5H12.5" stroke="#007FD7" stroke-linecap="round" stroke-linejoin="round"/>
<path d="M7.5 10.5L10.5 13.5L13.5 10.5" stroke="#007FD7" stroke-linecap="round" stroke-linejoin="round"/>
</svg>
