<svg width="27" height="26" viewBox="0 0 27 26" fill="none" xmlns="http://www.w3.org/2000/svg">
<path d="M19.1442 12.5H9.5754M23.9286 18.8333V6.16667C23.9286 5.32681 23.5925 4.52136 22.9943 3.92749C22.3962 3.33363 21.5849 3 20.739 3H7.9806C7.13467 3 6.32339 3.33363 5.72522 3.92749C5.12706 4.52136 4.79102 5.32681 4.79102 6.16667V18.8333C4.79102 19.6732 5.12706 20.4786 5.72522 21.0725C6.32339 21.6664 7.13467 22 7.9806 22H20.739C21.5849 22 22.3962 21.6664 22.9943 21.0725C23.5925 20.4786 23.9286 19.6732 23.9286 18.8333ZM14.3598 7.75V17.3387V7.75Z" stroke="#007FD7" stroke-linecap="round" stroke-linejoin="round"/>
</svg>
