<svg width="22" height="22" viewBox="0 0 22 22" fill="none" xmlns="http://www.w3.org/2000/svg">
<path d="M19.05 10.5171H2.01582M19.0476 16.5983L19.0354 4.43102C19.0348 3.78605 18.7781 3.16772 18.3218 2.71188C17.8655 2.25605 17.2469 2 16.6019 2H4.43467C3.82074 1.99981 3.22942 2.23167 2.77926 2.64912C2.32909 3.06657 2.05335 3.63874 2.0073 4.25095L2 4.43589L2.01217 16.6032C2.01281 17.2481 2.26948 17.8665 2.72577 18.3223C3.18206 18.7781 3.80065 19.0342 4.44562 19.0342H16.6129C17.2268 19.0344 17.8181 18.8025 18.2683 18.3851C18.7185 17.9676 18.9942 17.3954 19.0403 16.7832L19.0476 16.5983ZM10.5329 2V18.8115V2Z" stroke="white" stroke-linecap="round" stroke-linejoin="round"/>
</svg>
