<svg width="23" height="23" viewBox="0 0 23 23" fill="none" xmlns="http://www.w3.org/2000/svg">
<path d="M11.5001 1.27783C9.47829 1.27783 7.50193 1.87735 5.8209 3.00059C4.13986 4.12382 2.82965 5.72031 2.05596 7.58818C1.28226 9.45605 1.07983 11.5114 1.47425 13.4943C1.86868 15.4772 2.84225 17.2987 4.27186 18.7283C5.70146 20.1579 7.52289 21.1314 9.5058 21.5259C11.4887 21.9203 13.5441 21.7179 15.4119 20.9442C17.2798 20.1705 18.8763 18.8603 19.9995 17.1792C21.1228 15.4982 21.7223 13.5218 21.7223 11.5001C21.7223 8.78895 20.6453 6.18889 18.7283 4.27185C16.8112 2.35481 14.2112 1.27783 11.5001 1.27783ZM2.55561 11.5001C2.55622 9.35076 3.33462 7.27429 4.747 5.65422L17.3459 18.2531C16.0502 19.372 14.4605 20.0956 12.7658 20.3378C11.071 20.5801 9.34237 20.3309 7.78504 19.6198C6.22772 18.9088 4.90716 17.7657 3.9802 16.3264C3.05324 14.8871 2.5588 13.212 2.55561 11.5001ZM18.2531 17.3459L5.65423 4.747C7.3686 3.31457 9.55695 2.57554 11.7888 2.67532C14.0206 2.7751 16.1342 3.70646 17.714 5.28616C19.2937 6.86587 20.225 8.97954 20.3248 11.2114C20.4246 13.4432 19.6855 15.6315 18.2531 17.3459Z" fill="#E83D3D"/>
</svg>
