<svg width="15" height="15" viewBox="0 0 15 15" fill="none" xmlns="http://www.w3.org/2000/svg">
<path d="M13.125 4.21875H10.3125V5.15625H13.125V7.03125H11.25V7.96875H13.125V9.84375H10.3125V10.7812H13.125C13.3735 10.7809 13.6118 10.682 13.7875 10.5063C13.9632 10.3305 14.0621 10.0923 14.0625 9.84375V5.15625C14.0623 4.90769 13.9634 4.66937 13.7876 4.49361C13.6119 4.31785 13.3736 4.219 13.125 4.21875ZM9.375 10.7812H5.625V7.96875C5.62525 7.72019 5.7241 7.48187 5.89986 7.30611C6.07562 7.13035 6.31394 7.0315 6.5625 7.03125H8.4375V5.15625H5.625V4.21875H8.4375C8.68606 4.219 8.92438 4.31785 9.10014 4.49361C9.2759 4.66937 9.37475 4.90769 9.375 5.15625V7.03125C9.37475 7.27981 9.2759 7.51813 9.10014 7.69389C8.92438 7.86965 8.68606 7.9685 8.4375 7.96875H6.5625V9.84375H9.375V10.7812ZM1.17188 10.5469V10.0781H2.57812V4.92188H1.17188V4.45312H3.04688V10.0781H4.45312V10.5469H1.17188Z" fill="black"/>
<path d="M2.8125 4.6875V10.3125V4.6875ZM3.28125 4.21875H0.9375V5.15625H2.34375V9.84375H0.9375V10.7812H4.6875V9.84375H3.28125V4.21875Z" fill="black"/>
</svg>
