<svg width="9" height="10" viewBox="0 0 9 10" fill="none" xmlns="http://www.w3.org/2000/svg">
<path d="M4.90625 7.5V7.07812C4.90625 6.78646 4.96615 6.51953 5.08594 6.27734C5.20833 6.03255 5.38542 5.83724 5.61719 5.69141C5.85156 5.54297 6.13542 5.46875 6.46875 5.46875C6.80729 5.46875 7.09115 5.54297 7.32031 5.69141C7.54948 5.83724 7.72266 6.03255 7.83984 6.27734C7.95703 6.51953 8.01563 6.78646 8.01563 7.07812V7.5C8.01563 7.79167 7.95573 8.0599 7.83594 8.30469C7.71875 8.54687 7.54427 8.74219 7.3125 8.89063C7.08333 9.03646 6.80208 9.10937 6.46875 9.10937C6.13021 9.10937 5.84505 9.03646 5.61328 8.89063C5.38151 8.74219 5.20573 8.54687 5.08594 8.30469C4.96615 8.0599 4.90625 7.79167 4.90625 7.5ZM5.70313 7.07812V7.5C5.70313 7.74219 5.76042 7.95964 5.875 8.15234C5.98958 8.34245 6.1875 8.4375 6.46875 8.4375C6.74219 8.4375 6.9349 8.34245 7.04688 8.15234C7.16146 7.95964 7.21875 7.74219 7.21875 7.5V7.07812C7.21875 6.83594 7.16406 6.61979 7.05469 6.42969C6.94531 6.23698 6.75 6.14062 6.46875 6.14062C6.19531 6.14062 5.9987 6.23698 5.87891 6.42969C5.76172 6.61979 5.70313 6.83594 5.70313 7.07812ZM0.921875 2.92188V2.5C0.921875 2.20833 0.981771 1.94141 1.10156 1.69922C1.22396 1.45443 1.40104 1.25911 1.63281 1.11328C1.86719 0.964844 2.15104 0.890625 2.48438 0.890625C2.82292 0.890625 3.10677 0.964844 3.33594 1.11328C3.5651 1.25911 3.73828 1.45443 3.85547 1.69922C3.97266 1.94141 4.03125 2.20833 4.03125 2.5V2.92188C4.03125 3.21354 3.97135 3.48177 3.85156 3.72656C3.73438 3.96875 3.5599 4.16406 3.32812 4.3125C3.09896 4.45833 2.81771 4.53125 2.48438 4.53125C2.14583 4.53125 1.86068 4.45833 1.62891 4.3125C1.39714 4.16406 1.22135 3.96875 1.10156 3.72656C0.981771 3.48177 0.921875 3.21354 0.921875 2.92188ZM1.71875 2.5V2.92188C1.71875 3.16406 1.77604 3.38151 1.89062 3.57422C2.00521 3.76432 2.20313 3.85937 2.48438 3.85937C2.75781 3.85937 2.95052 3.76432 3.0625 3.57422C3.17708 3.38151 3.23438 3.16406 3.23438 2.92188V2.5C3.23438 2.25781 3.17969 2.04167 3.07031 1.85156C2.96094 1.65885 2.76563 1.5625 2.48438 1.5625C2.21094 1.5625 2.01432 1.65885 1.89453 1.85156C1.77734 2.04167 1.71875 2.25781 1.71875 2.5ZM1.21875 9L6.71875 1H7.60938L2.10938 9H1.21875Z" fill="#2C323F"/>
</svg>
