<svg width="21" height="21" viewBox="0 0 21 21" fill="none" xmlns="http://www.w3.org/2000/svg">
<path d="M3.5 8.49999C3.49987 9.68324 3.91938 10.8282 4.68392 11.7312C5.44847 12.6343 6.5085 13.237 7.67555 13.4321C8.84259 13.6272 10.041 13.4021 11.0577 12.7968C12.0744 12.1915 12.8435 11.2453 13.2283 10.1264C13.613 9.00742 13.5885 7.78829 13.159 6.68573C12.7296 5.58318 11.923 4.66867 10.8828 4.10479C9.84251 3.54092 8.636 3.36423 7.47775 3.60614C6.31951 3.84805 5.28458 4.49289 4.557 5.42599" stroke="black" stroke-linecap="round" stroke-linejoin="round"/>
<path d="M17.5 17.5L12.121 12.121M4.5 1.5V5.5H8.5L4.5 1.5Z" stroke="black" stroke-linecap="round" stroke-linejoin="round"/>
</svg>
