<svg width="21" height="21" viewBox="0 0 21 21" fill="none" xmlns="http://www.w3.org/2000/svg">
<path d="M7.5 4.5C7.059 4.5 6.461 4.496 5.502 4.495C5.25703 4.49448 5.02039 4.5839 4.83698 4.7463C4.65357 4.9087 4.53615 5.13277 4.507 5.376L4.5 5.496V16.493C4.5 16.7582 4.60536 17.0126 4.79289 17.2001C4.98043 17.3876 5.23478 17.493 5.5 17.493L15.5 17.499C15.745 17.4992 15.9815 17.4096 16.1647 17.247C16.3479 17.0844 16.4651 16.8602 16.494 16.617L16.5 16.5V5.5C16.5 5.23478 16.3946 4.98043 16.2071 4.79289C16.0196 4.60535 15.7652 4.5 15.5 4.5H13.5" stroke="black" stroke-linecap="round" stroke-linejoin="round"/>
<path d="M6.5 14.5H12.5M8.5 3.5H12.5C12.7652 3.5 13.0196 3.60536 13.2071 3.79289C13.3946 3.98043 13.5 4.23478 13.5 4.5C13.5 4.76522 13.3946 5.01957 13.2071 5.20711C13.0196 5.39464 12.7652 5.5 12.5 5.5H8.5C8.23478 5.5 7.98043 5.39464 7.79289 5.20711C7.60536 5.01957 7.5 4.76522 7.5 4.5C7.5 4.23478 7.60536 3.98043 7.79289 3.79289C7.98043 3.60536 8.23478 3.5 8.5 3.5V3.5ZM6.5 8.5H11.5H6.5ZM6.5 10.5H13.5H6.5ZM6.5 12.5H9.5H6.5Z" stroke="black" stroke-linecap="round" stroke-linejoin="round"/>
</svg>
