<svg width="21" height="21" viewBox="0 0 21 21" fill="none" xmlns="http://www.w3.org/2000/svg">
<path d="M6.5 10.5C8.15685 10.5 9.5 9.15685 9.5 7.5C9.5 5.84315 8.15685 4.5 6.5 4.5C4.84315 4.5 3.5 5.84315 3.5 7.5C3.5 9.15685 4.84315 10.5 6.5 10.5Z" stroke="black" stroke-linecap="round" stroke-linejoin="round"/>
<path fill-rule="evenodd" clip-rule="evenodd" d="M9 5.5H15.5C16.328 5.5 17.5 5.825 17.5 7.5C17.5 9.175 16.328 9.5 15.5 9.5H9V5.5ZM14.5 17.5C13.7044 17.5 12.9413 17.1839 12.3787 16.6213C11.8161 16.0587 11.5 15.2956 11.5 14.5C11.5 13.7044 11.8161 12.9413 12.3787 12.3787C12.9413 11.8161 13.7044 11.5 14.5 11.5C15.2956 11.5 16.0587 11.8161 16.6213 12.3787C17.1839 12.9413 17.5 13.7044 17.5 14.5C17.5 15.2956 17.1839 16.0587 16.6213 16.6213C16.0587 17.1839 15.2956 17.5 14.5 17.5Z" stroke="black" stroke-linecap="round" stroke-linejoin="round"/>
<path d="M12 12.5H5.5C4.672 12.5 3.5 12.825 3.5 14.5C3.5 16.175 4.672 16.5 5.5 16.5H12" stroke="black" stroke-linecap="round" stroke-linejoin="round"/>
</svg>
