<svg width="21" height="21" viewBox="0 0 21 21" fill="none" xmlns="http://www.w3.org/2000/svg">
<path d="M12.5 13.5H13.5M8 2.48599V2.49999C8 3.03042 8.21071 3.53913 8.58579 3.9142C8.96086 4.28927 9.46957 4.49999 10 4.49999C10.5304 4.49999 11.0391 4.28927 11.4142 3.9142C11.7893 3.53913 12 3.03042 12 2.49999L11.999 2.48499H14.5C14.7652 2.48499 15.0196 2.59034 15.2071 2.77788C15.3946 2.96542 15.5 3.21977 15.5 3.48499V16.5C15.5 16.7652 15.3946 17.0196 15.2071 17.2071C15.0196 17.3946 14.7652 17.5 14.5 17.5H12C12 16.9696 11.7893 16.4608 11.4142 16.0858C11.0391 15.7107 10.5304 15.5 10 15.5C9.46957 15.5 8.96086 15.7107 8.58579 16.0858C8.21071 16.4608 8 16.9696 8 17.5H5.5C5.23478 17.5 4.98043 17.3946 4.79289 17.2071C4.60536 17.0196 4.5 16.7652 4.5 16.5V3.48499C4.5 3.21977 4.60536 2.96542 4.79289 2.77788C4.98043 2.59034 5.23478 2.48499 5.5 2.48499L8 2.48599ZM6.5 6.49999H7.5H6.5ZM9.5 6.49999H10.5H9.5ZM12.5 6.49999H13.5H12.5ZM6.5 13.5H7.5H6.5ZM9.5 13.5H10.5H9.5Z" stroke="black" stroke-linecap="round" stroke-linejoin="round"/>
</svg>
