<svg width="19" height="19" viewBox="0 0 19 19" fill="none" xmlns="http://www.w3.org/2000/svg">
<path d="M14.25 7.12467H13.0625C12.9575 7.12467 12.8568 7.16638 12.7826 7.24061C12.7084 7.31484 12.6667 7.41553 12.6667 7.52051C12.6667 7.62549 12.7084 7.72617 12.7826 7.8004C12.8568 7.87464 12.9575 7.91634 13.0625 7.91634H14.25C14.6697 7.91697 15.0721 8.08399 15.3689 8.38078C15.6657 8.67758 15.8327 9.07994 15.8333 9.49967V15.0413C15.8327 15.4611 15.6657 15.8634 15.3689 16.1602C15.0721 16.457 14.6697 16.624 14.25 16.6247H4.75C4.33027 16.624 3.9279 16.457 3.63111 16.1602C3.33431 15.8634 3.16729 15.4611 3.16667 15.0413V9.49967C3.16729 9.07994 3.33431 8.67758 3.63111 8.38078C3.9279 8.08399 4.33027 7.91697 4.75 7.91634H6.72917C6.83415 7.91634 6.93483 7.87464 7.00906 7.8004C7.0833 7.72617 7.125 7.62549 7.125 7.52051C7.125 7.41553 7.0833 7.31484 7.00906 7.24061C6.93483 7.16638 6.83415 7.12467 6.72917 7.12467H4.75C4.1203 7.1253 3.51658 7.37573 3.07132 7.82099C2.62605 8.26625 2.37563 8.86998 2.375 9.49967V15.0413C2.37563 15.671 2.62605 16.2748 3.07132 16.72C3.51658 17.1653 4.1203 17.4157 4.75 17.4163H14.25C14.8797 17.4157 15.4834 17.1653 15.9287 16.72C16.3739 16.2748 16.6244 15.671 16.625 15.0413V9.49967C16.6244 8.86998 16.3739 8.26625 15.9287 7.82099C15.4834 7.37573 14.8797 7.1253 14.25 7.12467ZM7.01575 5.0228L9.10417 2.93438V13.8546C9.10417 13.9596 9.14587 14.0603 9.2201 14.1345C9.29434 14.2088 9.39502 14.2505 9.5 14.2505C9.60498 14.2505 9.70566 14.2088 9.7799 14.1345C9.85413 14.0603 9.89583 13.9596 9.89583 13.8546V2.93359L11.9843 5.02201C12.0209 5.05894 12.0645 5.08825 12.1125 5.10826C12.1606 5.12826 12.2121 5.13856 12.2641 5.13856C12.3161 5.13856 12.3677 5.12826 12.4157 5.10826C12.4637 5.08825 12.5073 5.05894 12.544 5.02201C12.6182 4.94778 12.6599 4.84711 12.6599 4.74215C12.6599 4.63719 12.6182 4.53653 12.544 4.4623L9.78025 1.69859C9.7077 1.6266 9.61011 1.58547 9.50792 1.5838L9.5 1.58301L9.49446 1.5838C9.39129 1.5849 9.29267 1.62639 9.21975 1.69938L6.45683 4.4623C6.41903 4.49881 6.38887 4.54249 6.36813 4.59078C6.34738 4.63908 6.33646 4.69102 6.33601 4.74358C6.33555 4.79614 6.34556 4.84826 6.36547 4.89691C6.38537 4.94555 6.41476 4.98975 6.45193 5.02691C6.48909 5.06408 6.53329 5.09347 6.58193 5.11337C6.63058 5.13328 6.6827 5.14329 6.73526 5.14284C6.78782 5.14238 6.83976 5.13146 6.88806 5.11071C6.93635 5.08997 6.98003 5.05981 7.01654 5.02201L7.01575 5.0228Z" fill="black"/>
</svg>
