<svg width="26" height="26" viewBox="0 0 26 26" fill="none" xmlns="http://www.w3.org/2000/svg">
<path fill-rule="evenodd" clip-rule="evenodd" d="M21.6667 17.9524V9.28571L15.4762 3.09524H9.28576C8.62903 3.09524 7.99921 3.35612 7.53483 3.8205C7.07045 4.28487 6.80957 4.9147 6.80957 5.57143V17.9524C6.80957 18.6091 7.07045 19.2389 7.53483 19.7033C7.99921 20.1677 8.62903 20.4286 9.28576 20.4286H19.1905C19.8472 20.4286 20.4771 20.1677 20.9415 19.7033C21.4058 19.2389 21.6667 18.6091 21.6667 17.9524Z" stroke="black" stroke-linecap="round" stroke-linejoin="round"/>
<path d="M6.80969 5.57143C6.15296 5.57143 5.52313 5.83231 5.05876 6.29669C4.59438 6.76106 4.3335 7.39089 4.3335 8.04762V20.4286C4.3335 21.0853 4.59438 21.7151 5.05876 22.1795C5.52313 22.6439 6.15296 22.9048 6.80969 22.9048H16.7144C17.3712 22.9048 18.001 22.6439 18.4654 22.1795C18.9298 21.7151 19.1906 21.0853 19.1906 20.4286M15.4764 3.09524V6.80952C15.4764 7.46625 15.7372 8.09608 16.2016 8.56045C16.666 9.02483 17.2958 9.28571 17.9525 9.28571H21.6668L15.4764 3.09524Z" stroke="black" stroke-linecap="round" stroke-linejoin="round"/>
</svg>
