<svg width="26" height="26" viewBox="0 0 26 26" fill="none" xmlns="http://www.w3.org/2000/svg">
<path d="M22.9047 13.6191H19.1905M8.0476 4.95239C8.37596 4.95239 8.69087 5.08283 8.92306 5.31502C9.15525 5.54721 9.28569 5.86212 9.28569 6.19049V8.66668C9.28569 8.99504 9.15525 9.30996 8.92306 9.54214C8.69087 9.77433 8.37596 9.90477 8.0476 9.90477C7.71923 9.90477 7.40432 9.77433 7.17213 9.54214C6.93994 9.30996 6.8095 8.99504 6.8095 8.66668V6.19049C6.8095 5.86212 6.93994 5.54721 7.17213 5.31502C7.40432 5.08283 7.71923 4.95239 8.0476 4.95239V4.95239ZM22.9047 7.42858H9.28569H22.9047ZM6.8095 7.42858H3.09521H6.8095ZM8.0476 17.3333C8.37596 17.3333 8.69087 17.4638 8.92306 17.696C9.15525 17.9282 9.28569 18.2431 9.28569 18.5714V21.0476C9.28569 21.376 9.15525 21.6909 8.92306 21.9231C8.69087 22.1553 8.37596 22.2857 8.0476 22.2857C7.71923 22.2857 7.40432 22.1553 7.17213 21.9231C6.93994 21.6909 6.8095 21.376 6.8095 21.0476V18.5714C6.8095 18.2431 6.93994 17.9282 7.17213 17.696C7.40432 17.4638 7.71923 17.3333 8.0476 17.3333ZM22.9047 19.8095H9.28569H22.9047ZM6.8095 19.8095H3.09521H6.8095ZM17.9524 11.1429C18.2807 11.1429 18.5956 11.2733 18.8278 11.5055C19.06 11.7377 19.1905 12.0526 19.1905 12.381V14.8572C19.1905 15.1855 19.06 15.5004 18.8278 15.7326C18.5956 15.9648 18.2807 16.0953 17.9524 16.0953C17.624 16.0953 17.3091 15.9648 17.0769 15.7326C16.8447 15.5004 16.7143 15.1855 16.7143 14.8572V12.381C16.7143 12.0526 16.8447 11.7377 17.0769 11.5055C17.3091 11.2733 17.624 11.1429 17.9524 11.1429V11.1429ZM16.7143 13.6191H3.09521H16.7143Z" stroke="black" stroke-linecap="round" stroke-linejoin="round"/>
</svg>
