<svg width="26" height="26" viewBox="0 0 26 26" fill="none" xmlns="http://www.w3.org/2000/svg">
<path d="M12.655 14.585C13.569 14.585 14.31 13.844 14.31 12.93C14.31 12.0159 13.569 11.275 12.655 11.275C11.741 11.275 11 12.0159 11 12.93C11 13.844 11.741 14.585 12.655 14.585Z" fill="black"/>
<path d="M12.655 6.31C13.569 6.31 14.31 5.56903 14.31 4.655C14.31 3.74097 13.569 3 12.655 3C11.741 3 11 3.74097 11 4.655C11 5.56903 11.741 6.31 12.655 6.31Z" fill="black"/>
<path d="M12.655 22.86C13.569 22.86 14.31 22.1191 14.31 21.205C14.31 20.291 13.569 19.55 12.655 19.55C11.741 19.55 11 20.291 11 21.205C11 22.1191 11.741 22.86 12.655 22.86Z" fill="black"/>
</svg>
