<svg width="41" height="41" viewBox="0 0 41 41" fill="none" xmlns="http://www.w3.org/2000/svg">
<path d="M30.2619 12.6904H16.5952M30.2619 20.5H16.5952H30.2619ZM30.2619 28.3095H16.5952H30.2619Z" stroke="black" stroke-linecap="round" stroke-linejoin="round"/>
<path fill-rule="evenodd" clip-rule="evenodd" d="M10.7361 14.643C11.7123 14.643 12.6885 13.6669 12.6885 12.6907C12.6885 11.7145 11.7123 10.7383 10.7361 10.7383C9.75988 10.7383 8.78564 11.7145 8.78564 12.6907C8.78564 13.6669 9.75988 14.643 10.7361 14.643ZM10.7361 22.4526C11.7123 22.4526 12.6885 21.4764 12.6885 20.5002C12.6885 19.524 11.7123 18.5478 10.7361 18.5478C9.75988 18.5478 8.78564 19.524 8.78564 20.5002C8.78564 21.4764 9.75988 22.4526 10.7361 22.4526ZM10.7361 30.2621C11.7123 30.2621 12.6885 29.2859 12.6885 28.3097C12.6885 27.3335 11.7123 26.3573 10.7361 26.3573C9.75988 26.3573 8.78564 27.3335 8.78564 28.3097C8.78564 29.2859 9.75988 30.2621 10.7361 30.2621Z" fill="black"/>
</svg>
