<svg width="26" height="26" viewBox="0 0 26 26" fill="none" xmlns="http://www.w3.org/2000/svg">
<path fill-rule="evenodd" clip-rule="evenodd" d="M9.34286 5H16.3714C16.9928 5 17.5887 5.24684 18.0281 5.68621C18.4674 6.12558 18.7143 6.72149 18.7143 7.34286V19.0571C18.7143 19.6785 18.4674 20.2744 18.0281 20.7138C17.5887 21.1532 16.9928 21.4 16.3714 21.4H9.34286C8.72149 21.4 8.12558 21.1532 7.68621 20.7138C7.24684 20.2744 7 19.6785 7 19.0571V7.34286C7 6.72149 7.24684 6.12558 7.68621 5.68621C8.12558 5.24684 8.72149 5 9.34286 5V5Z" stroke="black" stroke-linecap="round" stroke-linejoin="round"/>
<path d="M12.8575 19.0571C13.5044 19.0571 14.0289 18.5326 14.0289 17.8857C14.0289 17.2387 13.5044 16.7142 12.8575 16.7142C12.2105 16.7142 11.686 17.2387 11.686 17.8857C11.686 18.5326 12.2105 19.0571 12.8575 19.0571Z" fill="black"/>
</svg>
