<svg width="22" height="22" viewBox="0 0 22 22" fill="none" xmlns="http://www.w3.org/2000/svg">
<path d="M5.524 14.6214H6.786M18.144 17.1457V4.52429C18.144 3.8548 17.8781 3.21274 17.4047 2.73935C16.9314 2.26595 16.2894 2 15.62 2H5.524C4.85459 2 4.2126 2.26595 3.73926 2.73935C3.26592 3.21274 3 3.8548 3 4.52429V17.1457C3 17.8152 3.26592 18.4573 3.73926 18.9307C4.2126 19.404 4.85459 19.67 5.524 19.67H15.62C16.2894 19.67 16.9314 19.404 17.4047 18.9307C17.8781 18.4573 18.144 17.8152 18.144 17.1457V17.1457ZM9.31 7.04857H15.62H9.31ZM5.524 7.04857H6.786H5.524ZM9.31 10.835H15.62H9.31ZM5.524 10.835H6.786H5.524ZM9.31 14.6214H15.62H9.31Z" stroke="white" stroke-linecap="round" stroke-linejoin="round"/>
</svg>
