<svg width="26" height="26" viewBox="0 0 26 26" fill="none" xmlns="http://www.w3.org/2000/svg">
<path fill-rule="evenodd" clip-rule="evenodd" d="M22.1728 12.8095H10.9719H22.1728ZM22.1728 19.2095H10.9719H22.1728ZM22.1728 6.40952H10.9719H22.1728Z" fill="black"/>
<path d="M22.1728 6.40952H10.9719M22.1728 12.8095H10.9719H22.1728ZM22.1728 19.2095H10.9719H22.1728Z" stroke="black" stroke-width="1.2381" stroke-linecap="round" stroke-linejoin="round"/>
<path fill-rule="evenodd" clip-rule="evenodd" d="M6.17006 8.00951C6.97013 8.00951 7.77019 7.20951 7.77019 6.40951C7.77019 5.60951 6.97013 4.80951 6.17006 4.80951C5.37 4.80951 4.57153 5.60951 4.57153 6.40951C4.57153 7.20951 5.37 8.00951 6.17006 8.00951ZM6.17006 14.4095C6.97013 14.4095 7.77019 13.6095 7.77019 12.8095C7.77019 12.0095 6.97013 11.2095 6.17006 11.2095C5.37 11.2095 4.57153 12.0095 4.57153 12.8095C4.57153 13.6095 5.37 14.4095 6.17006 14.4095ZM6.17006 20.8095C6.97013 20.8095 7.77019 20.0095 7.77019 19.2095C7.77019 18.4095 6.97013 17.6095 6.17006 17.6095C5.37 17.6095 4.57153 18.4095 4.57153 19.2095C4.57153 20.0095 5.37 20.8095 6.17006 20.8095Z" fill="black"/>
</svg>
