<svg width="22" height="22" viewBox="0 0 22 22" fill="none" xmlns="http://www.w3.org/2000/svg">
<path d="M10.835 15.8836V19.67M3.26214 2H17.1457L19.67 4.52429L17.1457 7.04857H3.26214C2.9274 7.04857 2.60637 6.9156 2.36967 6.6789C2.13298 6.4422 2 6.12117 2 5.78643V3.26214C2 2.9274 2.13298 2.60637 2.36967 2.36967C2.60637 2.13298 2.9274 2 3.26214 2V2ZM18.4079 10.835H4.52429L2 13.3593L4.52429 15.8836H18.4079C18.7426 15.8836 19.0636 15.7506 19.3003 15.5139C19.537 15.2772 19.67 14.9562 19.67 14.6214V12.0971C19.67 11.7624 19.537 11.4414 19.3003 11.2047C19.0636 10.968 18.7426 10.835 18.4079 10.835ZM10.835 7.04857V10.835V7.04857Z" stroke="white" stroke-linecap="round" stroke-linejoin="round"/>
</svg>
