<svg width="21" height="21" viewBox="0 0 21 21" fill="none" xmlns="http://www.w3.org/2000/svg">
<path d="M2.49991 10.5504C2.48768 8.6075 3.18293 6.72657 4.45585 5.25872C5.72878 3.79087 7.49239 2.83643 9.41744 2.57357C11.3425 2.31071 13.2974 2.75741 14.9173 3.83026C16.5371 4.90312 17.7112 6.52881 18.2203 8.40384C18.7293 10.2789 18.5387 12.2751 17.6838 14.0199C16.829 15.7646 15.3684 17.1386 13.5747 17.8854C11.7811 18.6322 9.77694 18.7008 7.93646 18.0782C6.09598 17.4557 4.54495 16.1847 3.57291 14.5024" stroke="#FF8819" stroke-linecap="round" stroke-linejoin="round"/>
<path d="M1.06752 11H3.93248L2.5 12.719L1.06752 11Z" fill="black" stroke="#FF8819"/>
<path d="M10.5 6.5V11.5H13.5" stroke="#FF8819" stroke-linecap="round" stroke-linejoin="round"/>
</svg>
