<svg width="80" height="80" viewBox="0 0 80 80" fill="none" xmlns="http://www.w3.org/2000/svg">
<path d="M66.6669 24.7619L67.8326 17.7676C67.9233 17.2221 67.8942 16.6634 67.7472 16.1303C67.6002 15.5972 67.3389 15.1025 66.9815 14.6806C66.6241 14.2586 66.1791 13.9195 65.6774 13.6869C65.1757 13.4542 64.6294 13.3336 64.0764 13.3333H15.9241C15.3711 13.3336 14.8248 13.4542 14.3231 13.6869C13.8214 13.9195 13.3764 14.2586 13.019 14.6806C12.6616 15.1025 12.4003 15.5972 12.2533 16.1303C12.1063 16.6634 12.0772 17.2221 12.1679 17.7676L13.3336 24.7619M67.3907 63.7828L69.2955 56.1638C69.4362 55.6021 69.447 55.0157 69.3271 54.4492C69.2072 53.8827 68.9597 53.3509 68.6034 52.8944C68.2472 52.4379 67.7915 52.0686 67.2711 51.8146C66.7508 51.5606 66.1793 51.4286 65.6002 51.4286H14.4002C13.8212 51.4286 13.2497 51.5606 12.7293 51.8146C12.209 52.0686 11.7533 52.4379 11.3971 52.8944C11.0408 53.3509 10.7933 53.8827 10.6734 54.4492C10.5535 55.0157 10.5643 55.6021 10.705 56.1638L12.6098 63.7828C12.8161 64.6066 13.2919 65.3379 13.9614 65.8604C14.6309 66.3828 15.4558 66.6666 16.305 66.6667H63.6955C64.5447 66.6666 65.3696 66.3828 66.0391 65.8604C66.7086 65.3379 67.1844 64.6066 67.3907 63.7828V63.7828ZM66.6669 43.8095L68.8002 37.4019C68.9911 36.8289 69.043 36.2187 68.9516 35.6217C68.8602 35.0247 68.6282 34.458 68.2747 33.9683C67.9212 33.4786 67.4564 33.08 66.9185 32.8053C66.3806 32.5307 65.7851 32.3878 65.1812 32.3886L14.8193 32.4533C14.2154 32.454 13.6203 32.5982 13.0832 32.8741C12.546 33.1499 12.0821 33.5495 11.7297 34.04C11.3773 34.5304 11.1466 35.0975 11.0565 35.6946C10.9665 36.2918 11.0196 36.9017 11.2117 37.4743L13.3336 43.8095H66.6669Z" stroke="black" stroke-linecap="round" stroke-linejoin="round"/>
</svg>
