<svg width="80" height="80" viewBox="0 0 80 80" fill="none" xmlns="http://www.w3.org/2000/svg">
<path d="M40.0001 59.0476V70.4762M17.143 17.1429H59.0477L66.6668 24.7619L59.0477 32.381H17.143C16.1327 32.381 15.1637 31.9796 14.4493 31.2652C13.7349 30.5508 13.3335 29.5818 13.3335 28.5714V20.9524C13.3335 19.942 13.7349 18.9731 14.4493 18.2587C15.1637 17.5442 16.1327 17.1429 17.143 17.1429V17.1429ZM62.8572 43.8095H20.9525L13.3335 51.4286L20.9525 59.0476H62.8572C63.8676 59.0476 64.8366 58.6463 65.551 57.9318C66.2654 57.2174 66.6668 56.2484 66.6668 55.2381V47.6191C66.6668 46.6087 66.2654 45.6397 65.551 44.9253C64.8366 44.2109 63.8676 43.8095 62.8572 43.8095ZM40.0001 32.381V43.8095V32.381Z" stroke="#2C323F" stroke-linecap="round" stroke-linejoin="round"/>
</svg>
