<svg width="80" height="80" viewBox="0 0 80 80" fill="none" xmlns="http://www.w3.org/2000/svg">
<path d="M70.4764 43.8095V55.2381C70.4764 60.1904 58.5374 66.6666 43.8097 66.6666C29.0821 66.6666 17.1431 60.1904 17.1431 55.2381V45.7143" stroke="black" stroke-linecap="round" stroke-linejoin="round"/>
<path d="M18.2627 46.7009C21.5579 51.0743 31.7484 55.1771 43.8094 55.1771C58.537 55.1771 70.4761 49.059 70.4761 43.8019C70.4761 40.8495 66.7161 37.6152 60.8151 35.3447" stroke="black" stroke-linecap="round" stroke-linejoin="round"/>
<path d="M59.0477 24.7619V36.1905C59.0477 41.1429 47.1086 47.6191 32.381 47.6191C17.6534 47.6191 5.71436 41.1429 5.71436 36.1905V24.7619" stroke="black" stroke-linecap="round" stroke-linejoin="round"/>
<path fill-rule="evenodd" clip-rule="evenodd" d="M32.381 36.1295C47.1086 36.1295 59.0477 30.0114 59.0477 24.7543C59.0477 19.4933 47.1086 13.3333 32.381 13.3333C17.6534 13.3333 5.71436 19.4933 5.71436 24.7543C5.71436 30.0114 17.6534 36.1295 32.381 36.1295Z" stroke="black" stroke-linecap="round" stroke-linejoin="round"/>
</svg>
