<svg width="80" height="80" viewBox="0 0 80 80" fill="none" xmlns="http://www.w3.org/2000/svg">
<path d="M9.52393 24.7619H70.4763M17.143 9.52381H62.8573C64.878 9.52381 66.8159 10.3265 68.2447 11.7554C69.6736 13.1842 70.4763 15.1222 70.4763 17.1429V62.8571C70.4763 64.8778 69.6736 66.8158 68.2447 68.2446C66.8159 69.6735 64.878 70.4762 62.8573 70.4762H17.143C15.1223 70.4762 13.1843 69.6735 11.7555 68.2446C10.3266 66.8158 9.52393 64.8778 9.52393 62.8571V17.1429C9.52393 15.1222 10.3266 13.1842 11.7555 11.7554C13.1843 10.3265 15.1223 9.52381 17.143 9.52381V9.52381Z" stroke="black" stroke-linecap="round" stroke-linejoin="round"/>
<path d="M40.0004 43.8095C42.1044 43.8095 43.81 42.1039 43.81 40C43.81 37.8961 42.1044 36.1905 40.0004 36.1905C37.8965 36.1905 36.1909 37.8961 36.1909 40C36.1909 42.1039 37.8965 43.8095 40.0004 43.8095Z" fill="black"/>
<path d="M24.7622 43.8095C26.8661 43.8095 28.5717 42.1039 28.5717 40C28.5717 37.8961 26.8661 36.1905 24.7622 36.1905C22.6582 36.1905 20.9526 37.8961 20.9526 40C20.9526 42.1039 22.6582 43.8095 24.7622 43.8095Z" fill="black"/>
<path d="M24.7622 59.0476C26.8661 59.0476 28.5717 57.342 28.5717 55.2381C28.5717 53.1342 26.8661 51.4286 24.7622 51.4286C22.6582 51.4286 20.9526 53.1342 20.9526 55.2381C20.9526 57.342 22.6582 59.0476 24.7622 59.0476Z" fill="black"/>
</svg>
