<svg width="22" height="22" viewBox="0 0 22 22" fill="none" xmlns="http://www.w3.org/2000/svg">
<path fill-rule="evenodd" clip-rule="evenodd" d="M16 16.5641V10.2784C16 9.72268 15.7893 9.18975 15.4142 8.79682C15.0391 8.40388 14.5304 8.18314 14 8.18314H5C4.46957 8.18314 3.96086 8.40388 3.58579 8.79682C3.21071 9.18975 3 9.72268 3 10.2784V16.5641C3 17.1198 3.21071 17.6527 3.58579 18.0456C3.96086 18.4386 4.46957 18.6593 5 18.6593H14C14.5304 18.6593 15.0391 18.4386 15.4142 18.0456C15.7893 17.6527 16 17.1198 16 16.5641Z" stroke="white" stroke-linecap="round" stroke-linejoin="round"/>
<path d="M18 16.5641V9.236C18 8.40246 17.6839 7.60306 17.1213 7.01366C16.5587 6.42426 15.7956 6.09314 15 6.09314H14.995L6 6.1099" stroke="white" stroke-linecap="round" stroke-linejoin="round"/>
<path d="M20 14.4689V8.19048C20 7.07909 19.5786 6.01323 18.8284 5.22736C18.0783 4.4415 17.0609 4 16 4H15.993L8 4.01362" stroke="white" stroke-linecap="round" stroke-linejoin="round"/>
</svg>
