<svg width="26" height="26" viewBox="0 0 26 26" fill="none" xmlns="http://www.w3.org/2000/svg">
<path d="M8.89459 18.0026H6.99825C6.46828 18.0026 5.96002 17.7921 5.58527 17.4174C5.21053 17.0426 5 16.5343 5 16.0044V12.0079C5 11.4779 5.21053 10.9696 5.58527 10.5949C5.96002 10.2201 6.46828 10.0096 6.99825 10.0096H19.0017C19.5317 10.0096 20.04 10.2201 20.4147 10.5949C20.7895 10.9696 21 11.4779 21 12.0079V16.0044C21 16.5343 20.7895 17.0426 20.4147 17.4174C20.04 17.7921 19.5317 18.0026 19.0017 18.0026H17.0035" stroke="black" stroke-linecap="round" stroke-linejoin="round"/>
<path d="M9.01074 8.01136L9.01074 6.01311C9.01074 5.74813 9.11601 5.494 9.30338 5.30662C9.49075 5.11925 9.74488 5.01399 10.0099 5.01399H16.0046C16.2696 5.01399 16.5237 5.11925 16.7111 5.30662C16.8985 5.494 17.0037 5.74813 17.0037 6.01311V8.01136M9.01074 20.0009V15.0042H17.0037V20.0009C17.0037 20.2659 16.8985 20.52 16.7111 20.7074C16.5237 20.8947 16.2696 21 16.0046 21H10.0099C9.74488 21 9.49075 20.8947 9.30338 20.7074C9.11601 20.52 9.01074 20.2659 9.01074 20.0009V20.0009Z" stroke="black" stroke-linecap="round" stroke-linejoin="round"/>
<path d="M19.5026 12.5075C19.5026 11.9557 19.0553 11.5084 18.5035 11.5084C17.9517 11.5084 17.5044 11.9557 17.5044 12.5075C17.5044 13.0593 17.9517 13.5066 18.5035 13.5066C19.0553 13.5066 19.5026 13.0593 19.5026 12.5075Z" fill="black"/>
</svg>
