<svg width="40" height="40" viewBox="0 0 40 40" fill="none" xmlns="http://www.w3.org/2000/svg">
<path fill-rule="evenodd" clip-rule="evenodd" d="M6.6665 12.381V27.6191C6.6665 28.6294 7.06786 29.5984 7.78229 30.3128C8.49671 31.0272 9.46568 31.4286 10.476 31.4286H29.5236C30.534 31.4286 31.503 31.0272 32.2174 30.3128C32.9318 29.5984 33.3332 28.6294 33.3332 27.6191V12.381C33.3332 11.3706 32.9318 10.4016 32.2174 9.68723C31.503 8.9728 30.534 8.57144 29.5236 8.57144H10.476C9.46568 8.57144 8.49671 8.9728 7.78229 9.68723C7.06786 10.4016 6.6665 11.3706 6.6665 12.381V12.381Z" stroke="black" stroke-linecap="round" stroke-linejoin="round"/>
<path d="M10.4761 14.2857L19.9999 20L29.5237 14.2857" stroke="black" stroke-linecap="round" stroke-linejoin="round"/>
</svg>
