<svg width="40" height="40" viewBox="0 0 40 40" fill="none" xmlns="http://www.w3.org/2000/svg">
<path fill-rule="evenodd" clip-rule="evenodd" d="M14.2856 6.66666H25.7142C26.7245 6.66666 27.6935 7.06802 28.4079 7.78244C29.1223 8.49686 29.5237 9.46583 29.5237 10.4762V29.5238C29.5237 30.5341 29.1223 31.5031 28.4079 32.2175C27.6935 32.932 26.7245 33.3333 25.7142 33.3333H14.2856C13.2752 33.3333 12.3063 32.932 11.5919 32.2175C10.8774 31.5031 10.4761 30.5341 10.4761 29.5238V10.4762C10.4761 9.46583 10.8774 8.49686 11.5919 7.78244C12.3063 7.06802 13.2752 6.66666 14.2856 6.66666V6.66666Z" stroke="black" stroke-linecap="round" stroke-linejoin="round"/>
<path d="M20 29.5238C21.0519 29.5238 21.9047 28.671 21.9047 27.619C21.9047 26.5671 21.0519 25.7143 20 25.7143C18.948 25.7143 18.0952 26.5671 18.0952 27.619C18.0952 28.671 18.948 29.5238 20 29.5238Z" fill="black"/>
</svg>
