<svg width="27" height="26" viewBox="0 0 27 26" fill="none" xmlns="http://www.w3.org/2000/svg">
<path d="M13.153 22.9048C18.6628 22.9048 23.1294 18.4703 23.1294 13C23.1294 7.52977 18.6628 3.09525 13.153 3.09525C7.64312 3.09525 3.17651 7.52977 3.17651 13C3.17651 18.4703 7.64312 22.9048 13.153 22.9048Z" stroke="#007FD7" stroke-width="1.2381" stroke-linecap="round" stroke-linejoin="round"/>
<path d="M13.1531 14.2381V13L14.9164 11.2493C15.3842 10.7851 15.647 10.1553 15.6472 9.49867V9.28572C15.6472 8.52677 15.2157 7.83344 14.5323 7.4942L14.2679 7.36296C13.9217 7.19122 13.5401 7.10181 13.1531 7.10181C12.7661 7.10181 12.3844 7.19122 12.0382 7.36296L11.906 7.42858C11.1415 7.80744 10.6589 8.58372 10.6589 9.43182V10.5238" stroke="#007FD7" stroke-width="1.2381" stroke-linecap="round" stroke-linejoin="round"/>
<path d="M13.1531 19.1905C13.8418 19.1905 14.4001 18.6362 14.4001 17.9524C14.4001 17.2687 13.8418 16.7144 13.1531 16.7144C12.4643 16.7144 11.906 17.2687 11.906 17.9524C11.906 18.6362 12.4643 19.1905 13.1531 19.1905Z" fill="#007FD7"/>
</svg>
