<svg width="22" height="22" viewBox="0 0 22 22" fill="none" xmlns="http://www.w3.org/2000/svg">
<path d="M6.78643 3.26215H4.26214C3.9274 3.26215 3.60637 3.39512 3.36967 3.63182C3.13298 3.86852 3 4.18955 3 4.52429V18.4079C3 18.7426 3.13298 19.0636 3.36967 19.3003C3.60637 19.537 3.9274 19.67 4.26214 19.67H16.8836C17.2183 19.67 17.5393 19.537 17.776 19.3003C18.0127 19.0636 18.1457 18.7426 18.1457 18.4079V4.52429C18.1457 4.18955 18.0127 3.86852 17.776 3.63182C17.5393 3.39512 17.2183 3.26215 16.8836 3.26215H14.3593" stroke="white" stroke-linecap="round" stroke-linejoin="round"/>
<path d="M5.52417 15.8836H6.78631M8.04846 2H13.097C13.4318 2 13.7528 2.13298 13.9895 2.36967C14.2262 2.60637 14.3592 2.9274 14.3592 3.26214C14.3592 3.59688 14.2262 3.91791 13.9895 4.15461C13.7528 4.39131 13.4318 4.52429 13.097 4.52429H8.04846C7.71371 4.52429 7.39268 4.39131 7.15599 4.15461C6.91929 3.91791 6.78631 3.59688 6.78631 3.26214C6.78631 2.9274 6.91929 2.60637 7.15599 2.36967C7.39268 2.13298 7.71371 2 8.04846 2V2ZM9.3106 8.31071H15.6213H9.3106ZM9.3106 12.0971H15.6213H9.3106ZM9.3106 15.8836H15.6213H9.3106ZM5.52417 8.31071H6.78631H5.52417ZM5.52417 12.0971H6.78631H5.52417Z" stroke="white" stroke-linecap="round" stroke-linejoin="round"/>
</svg>
