<svg width="26" height="26" viewBox="0 0 26 26" fill="none" xmlns="http://www.w3.org/2000/svg">
<path d="M15.5625 9.3125V17.8125M8.125 6.125H18.75V18.875C18.75 19.4386 18.5261 19.9791 18.1276 20.3776C17.7291 20.7761 17.1886 21 16.625 21H10.25C9.68641 21 9.14591 20.7761 8.7474 20.3776C8.34888 19.9791 8.125 19.4386 8.125 18.875V6.125ZM13.4375 4C13.9736 3.99983 14.49 4.20231 14.8831 4.56684C15.2762 4.93137 15.517 5.43102 15.5572 5.96563L15.5625 6.125H11.3125C11.3125 5.56141 11.5364 5.02091 11.9349 4.6224C12.3334 4.22388 12.8739 4 13.4375 4V4ZM6 6.125H20.875H6ZM11.3125 9.3125V17.8125V9.3125Z" stroke="#E52727" stroke-width="1.2381" stroke-linecap="round" stroke-linejoin="round"/>
</svg>
