<svg width="80" height="80" viewBox="0 0 80 80" fill="none" xmlns="http://www.w3.org/2000/svg">
<path d="M9.52393 24.762H70.4763M17.143 9.52393H62.8573C64.878 9.52393 66.8159 10.3266 68.2447 11.7555C69.6736 13.1843 70.4763 15.1223 70.4763 17.143V62.8573C70.4763 64.878 69.6736 66.8159 68.2447 68.2447C66.8159 69.6736 64.878 70.4763 62.8573 70.4763H17.143C15.1223 70.4763 13.1843 69.6736 11.7555 68.2447C10.3266 66.8159 9.52393 64.878 9.52393 62.8573V17.143C9.52393 15.1223 10.3266 13.1843 11.7555 11.7555C13.1843 10.3266 15.1223 9.52393 17.143 9.52393V9.52393Z" stroke="black" stroke-linecap="round" stroke-linejoin="round"/>
</svg>
