<svg width="80" height="80" viewBox="0 0 80 80" fill="none" xmlns="http://www.w3.org/2000/svg">
<path d="M28.5714 17.1431H20.9523C19.942 17.1431 18.973 17.5444 18.2586 18.2589C17.5442 18.9733 17.1428 19.9422 17.1428 20.9526V62.8573C17.1428 63.8677 17.5442 64.8367 18.2586 65.5511C18.973 66.2655 19.942 66.6669 20.9523 66.6669H59.0476C60.0579 66.6669 61.0269 66.2655 61.7413 65.5511C62.4557 64.8367 62.8571 63.8677 62.8571 62.8573V20.9526C62.8571 19.9422 62.4557 18.9733 61.7413 18.2589C61.0269 17.5444 60.0579 17.1431 59.0476 17.1431H51.4285" stroke="black" stroke-linecap="round" stroke-linejoin="round"/>
<path d="M24.762 55.2383H28.5715M32.381 13.3335H47.6191C48.6295 13.3335 49.5984 13.7349 50.3128 14.4493C51.0273 15.1637 51.4286 16.1327 51.4286 17.143C51.4286 18.1534 51.0273 19.1223 50.3128 19.8368C49.5984 20.5512 48.6295 20.9525 47.6191 20.9525H32.381C31.3707 20.9525 30.4017 20.5512 29.6873 19.8368C28.9728 19.1223 28.5715 18.1534 28.5715 17.143C28.5715 16.1327 28.9728 15.1637 29.6873 14.4493C30.4017 13.7349 31.3707 13.3335 32.381 13.3335V13.3335ZM36.1905 32.3811H55.2382H36.1905ZM36.1905 43.8097H55.2382H36.1905ZM36.1905 55.2383H55.2382H36.1905ZM24.762 32.3811H28.5715H24.762ZM24.762 43.8097H28.5715H24.762Z" stroke="black" stroke-linecap="round" stroke-linejoin="round"/>
</svg>
