<svg width="80" height="80" viewBox="0 0 80 80" fill="none" xmlns="http://www.w3.org/2000/svg">
<path d="M51.4285 55.2382V32.3811M20.9523 13.3335H59.0475C61.0682 13.3335 63.0062 14.1362 64.435 15.5651C65.8639 16.9939 66.6666 18.9318 66.6666 20.9525V59.0478C66.6666 61.0685 65.8639 63.0064 64.435 64.4352C63.0062 65.8641 61.0682 66.6668 59.0475 66.6668H20.9523C18.9316 66.6668 16.9937 65.8641 15.5648 64.4352C14.136 63.0064 13.3333 61.0685 13.3333 59.0478V20.9525C13.3333 18.9318 14.136 16.9939 15.5648 15.5651C16.9937 14.1362 18.9316 13.3335 20.9523 13.3335V13.3335ZM28.5713 54.9906V24.7621V54.9906ZM39.9999 55.1811V40.0002V55.1811Z" stroke="black" stroke-linecap="round" stroke-linejoin="round"/>
</svg>
