<svg width="18" height="18" viewBox="0 0 18 18" fill="none" xmlns="http://www.w3.org/2000/svg">
<path d="M10.7143 6.42829V13.2854M4.71429 3.85686H13.2857V14.1426C13.2857 14.5972 13.1051 15.0333 12.7836 15.3548C12.4621 15.6763 12.0261 15.8569 11.5714 15.8569H6.42857C5.97391 15.8569 5.53788 15.6763 5.21639 15.3548C4.8949 15.0333 4.71429 14.5972 4.71429 14.1426V3.85686ZM9 2.14258C9.43249 2.14244 9.84906 2.30578 10.1662 2.59986C10.4833 2.89394 10.6776 3.29702 10.71 3.72829L10.7143 3.85686H7.28571C7.28571 3.40221 7.46633 2.96617 7.78782 2.64468C8.10931 2.32319 8.54534 2.14258 9 2.14258V2.14258ZM3 3.85686H15H3ZM7.28571 6.42829V13.2854V6.42829Z" stroke="black" stroke-linecap="round" stroke-linejoin="round"/>
</svg>
