<svg width="51" height="51" viewBox="0 0 51 51" fill="none" xmlns="http://www.w3.org/2000/svg">
<path fill-rule="evenodd" clip-rule="evenodd" d="M18.2143 8.5H32.7857C34.0739 8.5 35.3094 9.01173 36.2203 9.92262C37.1312 10.8335 37.6429 12.0689 37.6429 13.3571V37.6429C37.6429 38.9311 37.1312 40.1665 36.2203 41.0774C35.3094 41.9883 34.0739 42.5 32.7857 42.5H18.2143C16.9261 42.5 15.6907 41.9883 14.7798 41.0774C13.8689 40.1665 13.3572 38.9311 13.3572 37.6429V13.3571C13.3572 12.0689 13.8689 10.8335 14.7798 9.92262C15.6907 9.01173 16.9261 8.5 18.2143 8.5V8.5Z" stroke="#007FD7" stroke-linecap="round" stroke-linejoin="round"/>
<path d="M27.4287 35.2137C27.4287 36.2788 26.5652 37.1423 25.5001 37.1423C24.435 37.1423 23.5715 36.2788 23.5715 35.2137C23.5715 34.1486 24.435 33.2852 25.5001 33.2852C26.5652 33.2852 27.4287 34.1486 27.4287 35.2137Z" fill="#007FD7" stroke="#007FD7"/>
</svg>
