<svg width="51" height="51" viewBox="0 0 51 51" fill="none" xmlns="http://www.w3.org/2000/svg">
<path d="M18.2142 10.9277H13.357C12.7129 10.9277 12.0952 11.1836 11.6398 11.639C11.1843 12.0945 10.9285 12.7122 10.9285 13.3563V40.0706C10.9285 40.7147 11.1843 41.3324 11.6398 41.7879C12.0952 42.2433 12.7129 42.4992 13.357 42.4992H37.6428C38.2869 42.4992 38.9046 42.2433 39.36 41.7879C39.8155 41.3324 40.0713 40.7147 40.0713 40.0706V13.3563C40.0713 12.7122 39.8155 12.0945 39.36 11.639C38.9046 11.1836 38.2869 10.9277 37.6428 10.9277H32.7856" stroke="#007FD7" stroke-linecap="round" stroke-linejoin="round"/>
<path d="M18.2141 27.9286L23.0713 32.7857L35.2141 20.6429M20.6427 8.5H30.357C31.0011 8.5 31.6188 8.75587 32.0742 9.21131C32.5297 9.66676 32.7855 10.2845 32.7855 10.9286C32.7855 11.5727 32.5297 12.1904 32.0742 12.6458C31.6188 13.1013 31.0011 13.3571 30.357 13.3571H20.6427C19.9986 13.3571 19.3809 13.1013 18.9254 12.6458C18.47 12.1904 18.2141 11.5727 18.2141 10.9286C18.2141 10.2845 18.47 9.66676 18.9254 9.21131C19.3809 8.75587 19.9986 8.5 20.6427 8.5V8.5Z" stroke="#007FD7" stroke-linecap="round" stroke-linejoin="round"/>
</svg>
