<svg width="51" height="51" viewBox="0 0 51 51" fill="none" xmlns="http://www.w3.org/2000/svg">
<path fill-rule="evenodd" clip-rule="evenodd" d="M8.5 15.7849V35.2134C8.5 36.5016 9.01173 37.7371 9.92262 38.648C10.8335 39.5589 12.0689 40.0706 13.3571 40.0706H37.6429C38.9311 40.0706 40.1665 39.5589 41.0774 38.648C41.9883 37.7371 42.5 36.5016 42.5 35.2134V15.7849C42.5 14.4967 41.9883 13.2612 41.0774 12.3504C40.1665 11.4395 38.9311 10.9277 37.6429 10.9277H13.3571C12.0689 10.9277 10.8335 11.4395 9.92262 12.3504C9.01173 13.2612 8.5 14.4967 8.5 15.7849V15.7849Z" stroke="#007FD7" stroke-linecap="round" stroke-linejoin="round"/>
<path d="M13.3572 18.2129L25.5 25.4986L37.6429 18.2129" stroke="#007FD7" stroke-linecap="round" stroke-linejoin="round"/>
</svg>
