<svg width="27" height="26" viewBox="0 0 27 26" fill="none" xmlns="http://www.w3.org/2000/svg">
<path d="M16.56 21.0477C15.7283 22.2858 14.6895 22.9048 13.4424 22.9048C12.1953 22.9048 11.1565 22.2858 10.3248 21.0477M19.7837 19.1905H7.10111C6.73676 19.1907 6.37891 19.0948 6.06412 18.9127C5.74932 18.7306 5.48888 18.4687 5.30942 18.1539C5.12995 17.8391 5.03789 17.4827 5.04266 17.121C5.04742 16.7593 5.14883 16.4053 5.33652 16.0953C6.56042 14.0701 7.20699 11.7527 7.20711 9.39098V8.04764C7.20711 6.73418 7.73265 5.47452 8.66813 4.54577C9.6036 3.61701 10.8724 3.09525 12.1953 3.09525H14.6895C16.0124 3.09525 17.2812 3.61701 18.2167 4.54577C19.1522 5.47452 19.6777 6.73418 19.6777 8.04764V9.39098C19.6777 11.752 20.3237 14.071 21.5483 16.0953C21.736 16.4053 21.8374 16.7593 21.8421 17.121C21.8469 17.4827 21.7549 17.8391 21.5754 18.1539C21.3959 18.4687 21.1355 18.7306 20.8207 18.9127C20.5059 19.0948 20.148 19.1907 19.7837 19.1905V19.1905Z" stroke="#007FD7" stroke-width="1.2381" stroke-linecap="round" stroke-linejoin="round"/>
</svg>
