<svg width="26" height="26" viewBox="0 0 26 26" fill="none" xmlns="http://www.w3.org/2000/svg">
<path d="M12.191 6.618H7.21262C6.62579 6.618 6.06301 6.85111 5.64806 7.26606C5.23311 7.681 5 8.24379 5 8.83061V18.7874C5 19.3742 5.23311 19.937 5.64806 20.3519C6.06301 20.7669 6.62579 21 7.21262 21H18.2757C18.8625 21 19.4253 20.7669 19.8403 20.3519C20.2552 19.937 20.4883 19.3742 20.4883 18.7874V13.809" stroke="black" stroke-width="1.2381" stroke-linecap="round" stroke-linejoin="round"/>
<path d="M18.2758 7.7243L19.3301 8.83061M20.4884 5.47518C20.7833 5.78014 20.9466 6.18876 20.9431 6.61299C20.9396 7.03722 20.7695 7.44308 20.4696 7.74311L12.7442 15.4685L9.42529 16.5748L10.5316 13.2558L18.2614 5.4608C18.5331 5.18696 18.8968 5.02362 19.282 5.00237C19.6672 4.98112 20.0466 5.10346 20.3468 5.34574L20.4884 5.47518Z" stroke="black" stroke-width="1.2381" stroke-linecap="round" stroke-linejoin="round"/>
</svg>
