<svg width="20" height="21" viewBox="0 0 20 21" fill="none" xmlns="http://www.w3.org/2000/svg">
<path d="M10.9091 0.959384C10.9091 0.718278 10.8133 0.487047 10.6428 0.31656C10.4723 0.146072 10.2411 0.050293 10 0.050293C9.75889 0.050293 9.52766 0.146072 9.35718 0.31656C9.18669 0.487047 9.09091 0.718278 9.09091 0.959384V9.1412H0.909091C0.667985 9.1412 0.436754 9.23698 0.266267 9.40747C0.0957791 9.57796 0 9.80919 0 10.0503C0 10.2914 0.0957791 10.5226 0.266267 10.6931C0.436754 10.8636 0.667985 10.9594 0.909091 10.9594H9.09091V19.1412C9.09091 19.3823 9.18669 19.6135 9.35718 19.784C9.52766 19.9545 9.75889 20.0503 10 20.0503C10.2411 20.0503 10.4723 19.9545 10.6428 19.784C10.8133 19.6135 10.9091 19.3823 10.9091 19.1412V10.9594H19.0909C19.332 10.9594 19.5632 10.8636 19.7337 10.6931C19.9042 10.5226 20 10.2914 20 10.0503C20 9.80919 19.9042 9.57796 19.7337 9.40747C19.5632 9.23698 19.332 9.1412 19.0909 9.1412H10.9091V0.959384Z" fill="#28C968"/>
</svg>
