<svg width="21" height="21" viewBox="0 0 21 21" fill="none" xmlns="http://www.w3.org/2000/svg">
<path d="M7.5 4.5H5.5C5.23478 4.5 4.98043 4.60536 4.79289 4.79289C4.60536 4.98043 4.5 5.23478 4.5 5.5V16.5C4.5 16.7652 4.60536 17.0196 4.79289 17.2071C4.98043 17.3946 5.23478 17.5 5.5 17.5H15.5C15.7652 17.5 16.0196 17.3946 16.2071 17.2071C16.3946 17.0196 16.5 16.7652 16.5 16.5V5.5C16.5 5.23478 16.3946 4.98043 16.2071 4.79289C16.0196 4.60536 15.7652 4.5 15.5 4.5H13.5" stroke="black" stroke-linecap="round" stroke-linejoin="round"/>
<path d="M13.5 11.5H7.5M8.5 3.5H12.5C12.7652 3.5 13.0196 3.60536 13.2071 3.79289C13.3946 3.98043 13.5 4.23478 13.5 4.5C13.5 4.76522 13.3946 5.01957 13.2071 5.20711C13.0196 5.39464 12.7652 5.5 12.5 5.5H8.5C8.23478 5.5 7.98043 5.39464 7.79289 5.20711C7.60536 5.01957 7.5 4.76522 7.5 4.5C7.5 4.23478 7.60536 3.98043 7.79289 3.79289C7.98043 3.60536 8.23478 3.5 8.5 3.5V3.5Z" stroke="black" stroke-linecap="round" stroke-linejoin="round"/>
</svg>
