<svg width="21" height="21" viewBox="0 0 21 21" fill="none" xmlns="http://www.w3.org/2000/svg">
<path d="M7.5003 13.5L12.5003 8.5M9.5003 7.5L10.5003 6.5C11.0307 5.96956 11.7502 5.67157 12.5003 5.67157C13.2504 5.67157 13.9699 5.96956 14.5003 6.5C15.0307 7.03043 15.3287 7.74985 15.3287 8.5C15.3287 9.25014 15.0307 9.96956 14.5003 10.5L13.5003 11.5L9.5003 7.5ZM10.5003 14.5L9.5003 15.5C8.96987 16.0304 8.25045 16.3284 7.5003 16.3284C6.75016 16.3284 6.03074 16.0304 5.5003 15.5C4.96987 14.9696 4.67188 14.2501 4.67188 13.5C4.67187 12.7499 4.96987 12.0304 5.5003 11.5L6.5003 10.5L10.5003 14.5Z" stroke="black" stroke-linecap="round" stroke-linejoin="round"/>
</svg>
