<svg width="21" height="21" viewBox="0 0 21 21" fill="none" xmlns="http://www.w3.org/2000/svg">
<path d="M2.5 6.5H18.5M4.5 2.5H16.5C17.0304 2.5 17.5391 2.71071 17.9142 3.08579C18.2893 3.46086 18.5 3.96957 18.5 4.5V16.5C18.5 17.0304 18.2893 17.5391 17.9142 17.9142C17.5391 18.2893 17.0304 18.5 16.5 18.5H4.5C3.96957 18.5 3.46086 18.2893 3.08579 17.9142C2.71071 17.5391 2.5 17.0304 2.5 16.5V4.5C2.5 3.96957 2.71071 3.46086 3.08579 3.08579C3.46086 2.71071 3.96957 2.5 4.5 2.5V2.5Z" stroke="black" stroke-linecap="round" stroke-linejoin="round"/>
<path d="M10.5 11.5C11.0523 11.5 11.5 11.0523 11.5 10.5C11.5 9.94772 11.0523 9.5 10.5 9.5C9.94772 9.5 9.5 9.94772 9.5 10.5C9.5 11.0523 9.94772 11.5 10.5 11.5Z" fill="black"/>
<path d="M6.5 11.5C7.05228 11.5 7.5 11.0523 7.5 10.5C7.5 9.94772 7.05228 9.5 6.5 9.5C5.94772 9.5 5.5 9.94772 5.5 10.5C5.5 11.0523 5.94772 11.5 6.5 11.5Z" fill="black"/>
<path d="M14.5 11.5C15.0523 11.5 15.5 11.0523 15.5 10.5C15.5 9.94772 15.0523 9.5 14.5 9.5C13.9477 9.5 13.5 9.94772 13.5 10.5C13.5 11.0523 13.9477 11.5 14.5 11.5Z" fill="black"/>
<path d="M10.5 15.5C11.0523 15.5 11.5 15.0523 11.5 14.5C11.5 13.9477 11.0523 13.5 10.5 13.5C9.94772 13.5 9.5 13.9477 9.5 14.5C9.5 15.0523 9.94772 15.5 10.5 15.5Z" fill="black"/>
<path d="M6.5 15.5C7.05228 15.5 7.5 15.0523 7.5 14.5C7.5 13.9477 7.05228 13.5 6.5 13.5C5.94772 13.5 5.5 13.9477 5.5 14.5C5.5 15.0523 5.94772 15.5 6.5 15.5Z" fill="black"/>
<path d="M14.5 15.5C15.0523 15.5 15.5 15.0523 15.5 14.5C15.5 13.9477 15.0523 13.5 14.5 13.5C13.9477 13.5 13.5 13.9477 13.5 14.5C13.5 15.0523 13.9477 15.5 14.5 15.5Z" fill="black"/>
</svg>
