<svg width="21" height="21" viewBox="0 0 21 21" fill="none" xmlns="http://www.w3.org/2000/svg">
<path d="M8.5 15.5H12.5M7.5 3.5H13.5C14.0304 3.5 14.5391 3.71071 14.9142 4.08579C15.2893 4.46086 15.5 4.96957 15.5 5.5V15.5C15.5 16.0304 15.2893 16.5391 14.9142 16.9142C14.5391 17.2893 14.0304 17.5 13.5 17.5H7.5C6.96957 17.5 6.46086 17.2893 6.08579 16.9142C5.71071 16.5391 5.5 16.0304 5.5 15.5V5.5C5.5 4.96957 5.71071 4.46086 6.08579 4.08579C6.46086 3.71071 6.96957 3.5 7.5 3.5V3.5Z" stroke="black" stroke-linecap="round" stroke-linejoin="round"/>
</svg>
