<svg width="21" height="21" viewBox="0 0 21 21" fill="none" xmlns="http://www.w3.org/2000/svg">
<path d="M6.5 13.5H7.5M16.5 15.5V5.5C16.5 4.96957 16.2893 4.46086 15.9142 4.08579C15.5391 3.71071 15.0304 3.5 14.5 3.5H6.5C5.96957 3.5 5.46086 3.71071 5.08579 4.08579C4.71071 4.46086 4.5 4.96957 4.5 5.5V15.5C4.5 16.0304 4.71071 16.5391 5.08579 16.9142C5.46086 17.2893 5.96957 17.5 6.5 17.5H14.5C15.0304 17.5 15.5391 17.2893 15.9142 16.9142C16.2893 16.5391 16.5 16.0304 16.5 15.5V15.5ZM9.5 7.5H14.5H9.5ZM6.5 7.5H7.5H6.5ZM9.5 10.5H14.5H9.5ZM6.5 10.5H7.5H6.5ZM9.5 13.5H14.5H9.5Z" stroke="#000000" stroke-linecap="round" stroke-linejoin="round"/>
</svg>
