<svg width="28" height="28" viewBox="0 0 28 28" fill="none" xmlns="http://www.w3.org/2000/svg">
<path d="M12.6001 3.5C12.6001 3.31435 12.5263 3.1363 12.395 3.00503C12.2638 2.87375 12.0857 2.8 11.9001 2.8C11.7144 2.8 11.5364 2.87375 11.4051 3.00503C11.2738 3.1363 11.2001 3.31435 11.2001 3.5V5.6C10.9131 5.7008 10.6443 5.866 10.4161 6.0956L3.29426 13.2146C3.09912 13.4096 2.94431 13.6412 2.83869 13.8961C2.73307 14.1509 2.67871 14.4241 2.67871 14.7C2.67871 14.9759 2.73307 15.2491 2.83869 15.5039C2.94431 15.7588 3.09912 15.9904 3.29426 16.1854L9.36326 22.2544C9.55828 22.4495 9.78985 22.6043 10.0447 22.71C10.2996 22.8156 10.5728 22.87 10.8487 22.87C11.1246 22.87 11.3977 22.8156 11.6526 22.71C11.9075 22.6043 12.139 22.4495 12.3341 22.2544L19.4531 15.1354C19.6482 14.9404 19.803 14.7088 19.9086 14.4539C20.0143 14.1991 20.0686 13.9259 20.0686 13.65C20.0686 13.3741 20.0143 13.1009 19.9086 12.8461C19.803 12.5912 19.6482 12.3596 19.4531 12.1646L13.3855 6.0956C13.1641 5.87363 12.8957 5.70426 12.6001 5.6V3.5ZM11.2001 7.2898V9.1C11.2001 9.28565 11.2738 9.4637 11.4051 9.59497C11.5364 9.72625 11.7144 9.8 11.9001 9.8C12.0857 9.8 12.2638 9.72625 12.395 9.59497C12.5263 9.4637 12.6001 9.28565 12.6001 9.1V7.2898L18.4661 13.1558C18.5747 13.2648 18.6445 13.4065 18.6645 13.5592C18.6845 13.7118 18.6536 13.8667 18.5767 14H4.48986L11.2001 7.2898ZM10.3545 21.2646L4.48986 15.4H17.2103L11.3443 21.266C11.213 21.3972 11.035 21.4709 10.8494 21.4709C10.6637 21.4709 10.4857 21.3972 10.3545 21.266V21.2646ZM22.4225 15.9488C22.3489 15.8224 22.2435 15.7175 22.1167 15.6446C21.99 15.5717 21.8463 15.5334 21.7001 15.5334C21.5538 15.5334 21.4102 15.5717 21.2834 15.6446C21.1566 15.7175 21.0512 15.8224 20.9777 15.9488L18.6649 19.915C17.2971 22.2572 18.9869 25.2 21.7001 25.2C24.4119 25.2 26.1031 22.2572 24.7353 19.915L22.4225 15.9488ZM19.8745 20.6206L21.7001 17.4888L23.5271 20.6206C23.7141 20.9419 23.8131 21.3067 23.8141 21.6785C23.8151 22.0502 23.718 22.4156 23.5327 22.7379C23.3474 23.0601 23.0805 23.3278 22.7587 23.5139C22.4369 23.7001 22.0718 23.7981 21.7001 23.7981C21.3283 23.7981 20.9632 23.7001 20.6414 23.5139C20.3197 23.3278 20.0527 23.0601 19.8674 22.7379C19.6821 22.4156 19.5851 22.0502 19.5861 21.6785C19.5871 21.3067 19.6861 20.9419 19.8731 20.6206H19.8745Z" fill="#8F97B2"/>
</svg>
