<svg width="26" height="26" viewBox="0 0 26 26" fill="none" xmlns="http://www.w3.org/2000/svg">
<path d="M10.6079 4.80951L7.40819 4.81431C6.98389 4.81431 6.57696 4.98286 6.27693 5.28289C5.9769 5.58292 5.80835 5.98984 5.80835 6.41415V9.60903C5.80845 10.0011 5.95254 10.3795 6.21325 10.6724C6.47397 10.9653 6.83316 11.1522 7.22261 11.1977L7.41139 11.2089L10.6111 11.2041C11.0351 11.2036 11.4416 11.0349 11.7413 10.7349C12.041 10.4349 12.2093 10.0283 12.2093 9.60423V6.41095C12.2096 6.01857 12.0657 5.63977 11.8049 5.34657C11.5442 5.05337 11.1848 4.86622 10.7951 4.82071L10.6079 4.80951ZM20.2069 4.80951L17.0072 4.81431C16.5829 4.81431 16.176 4.98286 15.876 5.28289C15.5759 5.58292 15.4074 5.98984 15.4074 6.41415V9.60903C15.4075 10.0011 15.5516 10.3795 15.8123 10.6724C16.073 10.9653 16.4322 11.1522 16.8216 11.1977L17.0104 11.2089L20.2101 11.2041C20.6341 11.2036 21.0406 11.0349 21.3403 10.7349C21.64 10.4349 21.8083 10.0283 21.8083 9.60423V6.41095C21.8086 6.01857 21.6647 5.63977 21.404 5.34657C21.1432 5.05337 20.7838 4.86622 20.3941 4.82071L20.2069 4.80951ZM10.6079 14.4085L7.40819 14.4133C6.98389 14.4133 6.57696 14.5819 6.27693 14.8819C5.9769 15.182 5.80835 15.5889 5.80835 16.0132V19.2081C5.80845 19.6002 5.95254 19.9786 6.21325 20.2714C6.47397 20.5643 6.83316 20.7512 7.22261 20.7967L7.41139 20.8079L10.6111 20.8031C11.0351 20.8027 11.4416 20.6339 11.7413 20.334C12.041 20.034 12.2093 19.6273 12.2093 19.2033V16.01C12.2096 15.6176 12.0657 15.2388 11.8049 14.9456C11.5442 14.6524 11.1848 14.4653 10.7951 14.4197L10.6079 14.4085ZM20.2069 14.4085L17.0072 14.4133C16.5829 14.4133 16.176 14.5819 15.876 14.8819C15.5759 15.182 15.4074 15.5889 15.4074 16.0132V19.2081C15.4075 19.6002 15.5516 19.9786 15.8123 20.2714C16.073 20.5643 16.4322 20.7512 16.8216 20.7967L17.0104 20.8079L20.2101 20.8031C20.6341 20.8027 21.0406 20.6339 21.3403 20.334C21.64 20.034 21.8083 19.6273 21.8083 19.2033V16.01C21.8086 15.6176 21.6647 15.2388 21.404 14.9456C21.1432 14.6524 20.7838 14.4653 20.3941 14.4197L20.2069 14.4085Z" stroke="black" stroke-width="1.2381" stroke-linecap="round" stroke-linejoin="round"/>
</svg>
