<svg width="27" height="26" viewBox="0 0 27 26" fill="none" xmlns="http://www.w3.org/2000/svg">
<path d="M15.5883 4.33334H20.5765C20.9073 4.33334 21.2244 4.46379 21.4583 4.69597C21.6922 4.92816 21.8236 5.24308 21.8236 5.57144V10.5238C21.8236 10.8522 21.6922 11.1671 21.4583 11.3993C21.2244 11.6315 20.9073 11.7619 20.5765 11.7619H15.5883C15.2575 11.7619 14.9403 11.6315 14.7065 11.3993C14.4726 11.1671 14.3412 10.8522 14.3412 10.5238V5.57144C14.3412 5.24308 14.4726 4.92816 14.7065 4.69597C14.9403 4.46379 15.2575 4.33334 15.5883 4.33334ZM5.6118 4.33334H10.6C10.9308 4.33334 11.248 4.46379 11.4818 4.69597C11.7157 4.92816 11.8471 5.24308 11.8471 5.57144V10.5238C11.8471 10.8522 11.7157 11.1671 11.4818 11.3993C11.248 11.6315 10.9308 11.7619 10.6 11.7619H5.6118C5.28106 11.7619 4.96387 11.6315 4.73 11.3993C4.49613 11.1671 4.36475 10.8522 4.36475 10.5238V5.57144C4.36475 5.24308 4.49613 4.92816 4.73 4.69597C4.96387 4.46379 5.28106 4.33334 5.6118 4.33334ZM15.5883 14.2381H20.5765C20.9073 14.2381 21.2244 14.3685 21.4583 14.6007C21.6922 14.8329 21.8236 15.1478 21.8236 15.4762V20.4286C21.8236 20.7569 21.6922 21.0719 21.4583 21.304C21.2244 21.5362 20.9073 21.6667 20.5765 21.6667H15.5883C15.2575 21.6667 14.9403 21.5362 14.7065 21.304C14.4726 21.0719 14.3412 20.7569 14.3412 20.4286V15.4762C14.3412 15.1478 14.4726 14.8329 14.7065 14.6007C14.9403 14.3685 15.2575 14.2381 15.5883 14.2381ZM5.6118 14.2381H10.6C10.9308 14.2381 11.248 14.3685 11.4818 14.6007C11.7157 14.8329 11.8471 15.1478 11.8471 15.4762V20.4286C11.8471 20.7569 11.7157 21.0719 11.4818 21.304C11.248 21.5362 10.9308 21.6667 10.6 21.6667H5.6118C5.28106 21.6667 4.96387 21.5362 4.73 21.304C4.49613 21.0719 4.36475 20.7569 4.36475 20.4286V15.4762C4.36475 15.1478 4.49613 14.8329 4.73 14.6007C4.96387 14.3685 5.28106 14.2381 5.6118 14.2381Z" fill="#007FD7" fill-opacity="0.3" stroke="#007FD7" stroke-linecap="round" stroke-linejoin="round"/>
</svg>
