<svg width="22" height="22" viewBox="0 0 22 22" fill="none" xmlns="http://www.w3.org/2000/svg">
<path fill-rule="evenodd" clip-rule="evenodd" d="M10.8351 2C11.2781 2 11.7148 2.03282 12.1401 2.09592L12.7812 4.03833C13.3429 4.19862 13.8768 4.42706 14.3715 4.71483L16.2142 3.82629C16.8667 4.32735 17.4473 4.91803 17.937 5.57938L17.0157 7.40567C17.2946 7.90547 17.5142 8.44314 17.6644 9.00857L19.5954 9.68128C19.7018 10.4979 19.6946 11.3253 19.574 12.1399L17.6316 12.7811C17.4724 13.337 17.2452 13.8711 16.9551 14.3713L17.8436 16.214C17.3419 16.8667 16.7519 17.4465 16.0905 17.9368L14.2642 17.0155C13.759 17.2976 13.2206 17.5155 12.6613 17.6642L11.9886 19.5953C11.172 19.7016 10.3446 19.6944 9.53002 19.5738L8.88886 17.6314C8.33295 17.4722 7.79882 17.245 7.29859 16.9549L5.45589 17.8434C4.80319 17.3417 4.22338 16.7517 3.73309 16.0903L4.65444 14.264C4.373 13.7585 4.1551 13.2201 4.00571 12.6612L2.07466 11.9872C1.96838 11.171 1.9756 10.344 2.09612 9.52983L4.03852 8.88867C4.19881 8.32702 4.42726 7.79314 4.71502 7.29839L3.82649 5.45569C4.32823 4.803 4.91823 4.22318 5.57957 3.7329L7.40587 4.65424C7.91108 4.37212 8.44954 4.15419 9.00876 4.00551L9.68273 2.07447C10.0648 2.02476 10.4497 1.99988 10.8351 2V2Z" stroke="white" stroke-width="0.933" stroke-linecap="round" stroke-linejoin="round"/>
<path d="M10.835 14.6212C12.9261 14.6212 14.6213 12.926 14.6213 10.8349C14.6213 8.7437 12.9261 7.04849 10.835 7.04849C8.7438 7.04849 7.04858 8.7437 7.04858 10.8349C7.04858 12.926 8.7438 14.6212 10.835 14.6212Z" stroke="white" stroke-linecap="round" stroke-linejoin="round"/>
</svg>
