<svg width="26" height="26" viewBox="0 0 26 26" fill="none" xmlns="http://www.w3.org/2000/svg">
<path fill-rule="evenodd" clip-rule="evenodd" d="M5 8.38143V17.9071C5 18.5387 5.2509 19.1445 5.6975 19.5911C6.14411 20.0377 6.74983 20.2886 7.38143 20.2886H19.2886C19.9202 20.2886 20.5259 20.0377 20.9725 19.5911C21.4191 19.1445 21.67 18.5387 21.67 17.9071V8.38143C21.67 7.74983 21.4191 7.14411 20.9725 6.6975C20.5259 6.2509 19.9202 6 19.2886 6H7.38143C6.74983 6 6.14411 6.2509 5.6975 6.6975C5.2509 7.14411 5 7.74983 5 8.38143V8.38143Z" stroke="black" stroke-linecap="round" stroke-linejoin="round"/>
<path d="M7.38037 9.57214L13.3339 13.1443L19.2875 9.57214" stroke="black" stroke-linecap="round" stroke-linejoin="round"/>
</svg>
