<svg width="26" height="26" viewBox="0 0 26 26" fill="none" xmlns="http://www.w3.org/2000/svg">
<path d="M13.0001 14.2381C13.6838 14.2381 14.2382 13.6838 14.2382 13C14.2382 12.3162 13.6838 11.7619 13.0001 11.7619C12.3163 11.7619 11.762 12.3162 11.762 13C11.762 13.6838 12.3163 14.2381 13.0001 14.2381Z" fill="black"/>
<path d="M13.0001 8.04762C13.6838 8.04762 14.2382 7.4933 14.2382 6.80952C14.2382 6.12574 13.6838 5.57143 13.0001 5.57143C12.3163 5.57143 11.762 6.12574 11.762 6.80952C11.762 7.4933 12.3163 8.04762 13.0001 8.04762Z" fill="black"/>
<path d="M13.0001 20.4286C13.6838 20.4286 14.2382 19.8743 14.2382 19.1905C14.2382 18.5067 13.6838 17.9524 13.0001 17.9524C12.3163 17.9524 11.762 18.5067 11.762 19.1905C11.762 19.8743 12.3163 20.4286 13.0001 20.4286Z" fill="black"/>
</svg>
