<svg width="21" height="21" viewBox="0 0 21 21" fill="none" xmlns="http://www.w3.org/2000/svg">
<path fill-rule="evenodd" clip-rule="evenodd" d="M10.5001 5.5C11.2764 5.49974 12.0421 5.68023 12.7365 6.02717C13.4309 6.37412 14.0351 6.878 14.501 7.4989C14.9669 8.1198 15.2819 8.84066 15.421 9.60438C15.56 10.3681 15.5193 11.1537 15.3021 11.899C15.5558 11.7091 15.8509 11.5822 16.1632 11.5287C16.4755 11.4752 16.7961 11.4967 17.0985 11.5914C17.4008 11.6861 17.6764 11.8513 17.9024 12.0733C18.1285 12.2954 18.2985 12.568 18.3985 12.8687C18.4985 13.1693 18.5257 13.4894 18.4777 13.8026C18.4298 14.1159 18.3081 14.4132 18.1227 14.6702C17.9373 14.9271 17.6935 15.1364 17.4114 15.2806C17.1293 15.4249 16.817 15.5001 16.5001 15.5H5.50011C5.10117 15.5012 4.70599 15.4228 4.3377 15.2695C3.96942 15.1161 3.63541 14.8908 3.35525 14.6068C3.07508 14.3228 2.85437 13.9858 2.70604 13.6154C2.55771 13.2451 2.48473 12.8489 2.49138 12.45C2.49803 12.0511 2.58418 11.6576 2.74477 11.2924C2.90537 10.9272 3.13719 10.5977 3.42667 10.3232C3.71614 10.0487 4.05747 9.83464 4.43067 9.69364C4.80386 9.55264 5.20143 9.48749 5.60011 9.502C5.83059 8.37244 6.44416 7.35716 7.33704 6.62792C8.22991 5.89868 9.34728 5.50024 10.5001 5.5V5.5Z" stroke="#FF8819" stroke-linecap="round" stroke-linejoin="round"/>
<path d="M10.5 7.5V13.5M8.5 9.5L10.5 7.5L12.5 9.5H8.5Z" stroke="#FF8819" stroke-linecap="round" stroke-linejoin="round"/>
</svg>
