<svg width="21" height="21" viewBox="0 0 21 21" fill="none" xmlns="http://www.w3.org/2000/svg">
<path fill-rule="evenodd" clip-rule="evenodd" d="M3.5 6.5H15.5C16.0304 6.5 16.5391 6.71071 16.9142 7.08579C17.2893 7.46086 17.5 7.96957 17.5 8.5V14.5C17.5 15.0304 17.2893 15.5391 16.9142 15.9142C16.5391 16.2893 16.0304 16.5 15.5 16.5H5.5C4.96957 16.5 4.46086 16.2893 4.08579 15.9142C3.71071 15.5391 3.5 15.0304 3.5 14.5V6.5ZM4.5 4.5H13.5C13.7652 4.5 14.0196 4.60536 14.2071 4.79289C14.3946 4.98043 14.5 5.23478 14.5 5.5V6.5H3.5V5.5C3.5 5.23478 3.60536 4.98043 3.79289 4.79289C3.98043 4.60536 4.23478 4.5 4.5 4.5V4.5Z" stroke="black" stroke-linecap="round" stroke-linejoin="round"/>
<path d="M14.5 12.5C15.0523 12.5 15.5 12.0523 15.5 11.5C15.5 10.9477 15.0523 10.5 14.5 10.5C13.9477 10.5 13.5 10.9477 13.5 11.5C13.5 12.0523 13.9477 12.5 14.5 12.5Z" fill="black"/>
</svg>
