<svg width="80" height="80" viewBox="0 0 80 80" fill="none" xmlns="http://www.w3.org/2000/svg">
<path d="M28.5716 17.1429C26.8916 17.1429 24.6135 17.1276 20.9602 17.1238C20.027 17.1218 19.1255 17.4625 18.4268 18.0812C17.7281 18.6998 17.2808 19.5534 17.1697 20.48L17.1431 20.9371V62.8305C17.1431 63.8408 17.5444 64.8098 18.2589 65.5242C18.9733 66.2386 19.9422 66.64 20.9526 66.64L59.0478 66.6629C59.981 66.6638 60.882 66.3222 61.58 65.7028C62.278 65.0835 62.7244 64.2295 62.8345 63.3029L62.8573 62.8571V20.9524C62.8573 19.942 62.456 18.9731 61.7416 18.2586C61.0271 17.5442 60.0582 17.1429 59.0478 17.1429H51.4288" stroke="black" stroke-linecap="round" stroke-linejoin="round"/>
<path d="M24.7622 55.2381H47.6193M32.3813 13.3333H47.6193C48.6297 13.3333 49.5987 13.7347 50.3131 14.4491C51.0275 15.1635 51.4289 16.1325 51.4289 17.1429C51.4289 18.1532 51.0275 19.1222 50.3131 19.8366C49.5987 20.551 48.6297 20.9524 47.6193 20.9524H32.3813C31.3709 20.9524 30.4019 20.551 29.6875 19.8366C28.9731 19.1222 28.5717 18.1532 28.5717 17.1429C28.5717 16.1325 28.9731 15.1635 29.6875 14.4491C30.4019 13.7347 31.3709 13.3333 32.3813 13.3333V13.3333ZM24.7622 32.381H43.8098H24.7622ZM24.7622 40H51.4289H24.7622ZM24.7622 47.6191H36.1908H24.7622Z" stroke="black" stroke-linecap="round" stroke-linejoin="round"/>
</svg>
