<svg width="30" height="30" viewBox="0 0 30 30" fill="none" xmlns="http://www.w3.org/2000/svg">
<path d="M3.57129 9.28557H26.467M6.42843 3.57129H23.6099C23.9851 3.57129 24.3566 3.64519 24.7032 3.78878C25.0499 3.93236 25.3649 4.14282 25.6302 4.40813C25.8955 4.67344 26.1059 4.98841 26.2495 5.33505C26.3931 5.6817 26.467 6.05323 26.467 6.42843V23.557C26.4672 24.2778 26.195 24.9721 25.7049 25.5006C25.2147 26.0292 24.5429 26.3529 23.8241 26.407L23.5956 26.4156L6.41415 26.3327C5.65886 26.3289 4.9358 26.0263 4.40307 25.4908C3.87034 24.9554 3.57128 24.2309 3.57129 23.4756V6.42843C3.57129 5.67067 3.87231 4.94394 4.40813 4.40813C4.94394 3.87231 5.67067 3.57129 6.42843 3.57129V3.57129Z" stroke="black" stroke-linecap="round" stroke-linejoin="round"/>
<path d="M9.2855 16.4284C10.0745 16.4284 10.7141 15.7888 10.7141 14.9999C10.7141 14.2109 10.0745 13.5713 9.2855 13.5713C8.49653 13.5713 7.85693 14.2109 7.85693 14.9999C7.85693 15.7888 8.49653 16.4284 9.2855 16.4284Z" fill="black"/>
</svg>
