<svg width="22" height="22" viewBox="0 0 22 22" fill="none" xmlns="http://www.w3.org/2000/svg">
<path d="M6.78643 3.26215H4.26214C3.9274 3.26215 3.60637 3.39512 3.36967 3.63182C3.13298 3.86852 3 4.18955 3 4.52429V18.4079C3 18.7426 3.13298 19.0636 3.36967 19.3003C3.60637 19.537 3.9274 19.67 4.26214 19.67H16.8836C17.2183 19.67 17.5393 19.537 17.776 19.3003C18.0127 19.0636 18.1457 18.7426 18.1457 18.4079V4.52429C18.1457 4.18955 18.0127 3.86852 17.776 3.63182C17.5393 3.39512 17.2183 3.26215 16.8836 3.26215H14.3593" stroke="white" stroke-linecap="round" stroke-linejoin="round"/>
<path d="M14.3595 12.0971H6.78662M8.04876 2H13.0973C13.4321 2 13.7531 2.13298 13.9898 2.36967C14.2265 2.60637 14.3595 2.9274 14.3595 3.26214C14.3595 3.59688 14.2265 3.91791 13.9898 4.15461C13.7531 4.39131 13.4321 4.52429 13.0973 4.52429H8.04876C7.71402 4.52429 7.39299 4.39131 7.15629 4.15461C6.9196 3.91791 6.78662 3.59688 6.78662 3.26214C6.78662 2.9274 6.9196 2.60637 7.15629 2.36967C7.39299 2.13298 7.71402 2 8.04876 2V2ZM10.573 8.31071V15.9543V8.31071Z" stroke="white" stroke-linecap="round" stroke-linejoin="round"/>
</svg>
