<svg width="19" height="19" viewBox="0 0 19 19" fill="none" xmlns="http://www.w3.org/2000/svg">
<path d="M2.26196 5.88077H16.7382M4.07149 2.26172H14.9286C15.4085 2.26172 15.8688 2.45236 16.2082 2.79172C16.5475 3.13107 16.7382 3.59133 16.7382 4.07124V14.9284C16.7382 15.4083 16.5475 15.8686 16.2082 16.2079C15.8688 16.5473 15.4085 16.7379 14.9286 16.7379H4.07149C3.59157 16.7379 3.13131 16.5473 2.79196 16.2079C2.45261 15.8686 2.26196 15.4083 2.26196 14.9284V4.07124C2.26196 3.59133 2.45261 3.13107 2.79196 2.79172C3.13131 2.45236 3.59157 2.26172 4.07149 2.26172V2.26172Z" stroke="black" stroke-linecap="round" stroke-linejoin="round"/>
</svg>
