<svg width="27" height="26" viewBox="0 0 27 26" fill="none" xmlns="http://www.w3.org/2000/svg">
<path d="M13.7538 22.9048C19.2636 22.9048 23.7302 18.4703 23.7302 13C23.7302 7.52977 19.2636 3.09525 13.7538 3.09525C8.24395 3.09525 3.77734 7.52977 3.77734 13C3.77734 18.4703 8.24395 22.9048 13.7538 22.9048Z" stroke="#007FD7" stroke-width="1.2381" stroke-linecap="round" stroke-linejoin="round"/>
<path d="M21.2362 19.1905C20.4106 16.3751 17.2456 15.4453 13.7538 15.4453C10.3531 15.4453 7.18184 16.5212 6.27148 19.1905" stroke="#007FD7" stroke-width="1.2381" stroke-linecap="round" stroke-linejoin="round"/>
<path fill-rule="evenodd" clip-rule="evenodd" d="M13.7539 5.57144C14.7461 5.57144 15.6977 5.96277 16.3993 6.65933C17.1009 7.35589 17.495 8.30063 17.495 9.28572V11.7619C17.495 12.747 17.1009 13.6917 16.3993 14.3883C15.6977 15.0849 14.7461 15.4762 13.7539 15.4762C12.7616 15.4762 11.8101 15.0849 11.1085 14.3883C10.4069 13.6917 10.0127 12.747 10.0127 11.7619V9.28572C10.0127 8.30063 10.4069 7.35589 11.1085 6.65933C11.8101 5.96277 12.7616 5.57144 13.7539 5.57144V5.57144Z" stroke="#007FD7" stroke-width="1.2381" stroke-linecap="round" stroke-linejoin="round"/>
</svg>
