<svg width="26" height="26" viewBox="0 0 26 26" fill="none" xmlns="http://www.w3.org/2000/svg">
<path fill-rule="evenodd" clip-rule="evenodd" d="M24.375 13C24.375 12.7846 24.2894 12.5779 24.137 12.4255C23.9846 12.2732 23.778 12.1875 23.5625 12.1875H4.39886L9.51274 7.0753C9.58828 6.99976 9.6482 6.91007 9.68909 6.81137C9.72997 6.71267 9.75101 6.60688 9.75101 6.50005C9.75101 6.39322 9.72997 6.28743 9.68909 6.18873C9.6482 6.09003 9.58828 6.00034 9.51274 5.9248C9.43719 5.84926 9.34751 5.78933 9.24881 5.74845C9.15011 5.70757 9.04432 5.68652 8.93749 5.68652C8.83065 5.68652 8.72486 5.70757 8.62616 5.74845C8.52746 5.78933 8.43778 5.84926 8.36224 5.9248L1.86224 12.4248C1.78657 12.5003 1.72654 12.5899 1.68558 12.6886C1.64462 12.7874 1.62354 12.8932 1.62354 13C1.62354 13.1069 1.64462 13.2127 1.68558 13.3115C1.72654 13.4102 1.78657 13.4998 1.86224 13.5753L8.36224 20.0753C8.43778 20.1508 8.52746 20.2108 8.62616 20.2516C8.72486 20.2925 8.83065 20.3136 8.93749 20.3136C9.04432 20.3136 9.15011 20.2925 9.24881 20.2516C9.34751 20.2108 9.43719 20.1508 9.51274 20.0753C9.58828 19.9998 9.6482 19.9101 9.68909 19.8114C9.72997 19.7127 9.75101 19.6069 9.75101 19.5C9.75101 19.3932 9.72997 19.2874 9.68909 19.1887C9.6482 19.09 9.58828 19.0003 9.51274 18.9248L4.39886 13.8125H23.5625C23.778 13.8125 23.9846 13.7269 24.137 13.5746C24.2894 13.4222 24.375 13.2155 24.375 13Z" fill="black"/>
</svg>
