<svg width="21" height="21" viewBox="0 0 21 21" fill="none" xmlns="http://www.w3.org/2000/svg">
<path fill-rule="evenodd" clip-rule="evenodd" d="M10.5002 3.5C10.8512 3.5 11.1972 3.526 11.5342 3.576L12.0422 5.115C12.4872 5.242 12.9102 5.423 13.3022 5.651L14.7622 4.947C15.2792 5.344 15.7392 5.812 16.1272 6.336L15.3972 7.783C15.6182 8.179 15.7922 8.605 15.9112 9.053L17.4412 9.586C17.5255 10.233 17.5197 10.8886 17.4242 11.534L15.8852 12.042C15.759 12.4825 15.579 12.9057 15.3492 13.302L16.0532 14.762C15.6556 15.2791 15.1881 15.7385 14.6642 16.127L13.2172 15.397C12.8169 15.6205 12.3902 15.7932 11.9472 15.911L11.4142 17.441C10.7671 17.5253 10.1116 17.5196 9.46615 17.424L8.95815 15.885C8.5177 15.7589 8.0945 15.5788 7.69815 15.349L6.23815 16.053C5.72101 15.6555 5.26162 15.188 4.87315 14.664L5.60315 13.217C5.38016 12.8165 5.20752 12.3899 5.08915 11.947L3.55915 11.413C3.47495 10.7663 3.48067 10.1111 3.57615 9.466L5.11515 8.958C5.24215 8.513 5.42315 8.09 5.65115 7.698L4.94715 6.238C5.34469 5.72086 5.81216 5.26146 6.33615 4.873L7.78315 5.603C8.18344 5.37947 8.61008 5.2068 9.05315 5.089L9.58715 3.559C9.88989 3.51961 10.1949 3.49991 10.5002 3.5V3.5Z" stroke="black" stroke-width="0.933" stroke-linecap="round" stroke-linejoin="round"/>
<path d="M10.5 13.5C12.1569 13.5 13.5 12.1569 13.5 10.5C13.5 8.84315 12.1569 7.5 10.5 7.5C8.84315 7.5 7.5 8.84315 7.5 10.5C7.5 12.1569 8.84315 13.5 10.5 13.5Z" stroke="black" stroke-linecap="round" stroke-linejoin="round"/>
</svg>
